<?xml version="1.0" encoding="utf-8"?>
<svg version="1.1" xmlns="http://www.w3.org/2000/svg" xmlns:xlink="http://www.w3.org/1999/xlink"
     viewBox="7 21 87 91" width="200" height="200" xml:space="preserve">
<g xmlns="http://www.w3.org/2000/svg">
			<g>
				<g>
					<path style="fill:#7FAB3C;" d="M86.908,48.83c0,17.07-21.01,13.942-21.01,13.942s0.174,0.723,0.374,1.955       c0.183,1.114,0.391,2.648,0.519,4.442c0.149,2.121,0.183,4.603-0.081,7.175c-0.111,1.122-0.281,2.257-0.519,3.392       c-1.194,5.649-4.144,11.153-10.677,13.716c-1.326,0.523-2.797,0.922-4.429,1.177c0,0-2.984,0.421-7.234,0.349       c-9.283-0.149-24.597-2.623-27.938-16.908c-2.257-9.211,3.277-13.712,4.501-13.657c2.499,0.119-0.629,10.907,6.38,11.557       c3.481,0.2,4.187-2.89,6.627-5.679c2.44-2.788,5.509-5.075,8.901-7.128c3.388-2.053,3.149-8.016,2.495-12.445       c-0.076-0.519-0.145-1.101-0.2-1.73c-0.161-1.985-0.153-4.45,0.37-6.89c0.128-0.604,0.293-1.207,0.489-1.802v-0.004       c0.701-2.091,1.858-4.063,3.702-5.581c0.586-0.485,1.241-0.922,1.976-1.305c0.111-0.06,0.221-0.115,0.336-0.166       c2.091-1.016,4.327-1.445,6.499-1.462c5.211-0.042,10.069,2.261,11.782,4.467C69.77,36.244,86.908,34.378,86.908,48.83z" />
				</g>
			</g>
			<g>
				<g>
					<path style="fill:#638D29;" d="M70.484,100.086c-0.485,2.767-14.979,1.777-15.561-1.84c-0.327-1.993,1.173-2.75,0.591-4.795       c6.533-2.563,9.483-8.067,10.677-13.716c0.914,0.54,1.687,1.335,2.206,2.355c0.748,1.462,1.296,3.4,1.182,5.87       c-0.238,5.101-3.12,7.413-3.12,7.413S70.969,97.323,70.484,100.086z" />
				</g>
			</g>
			<g>
				<g>
					<path style="fill:#4E7218;" d="M66.075,98.865c1.203,0.292,2.446,1.075,2.792,2.335c0.033,0.113-0.032,0.23-0.145,0.263       c-0.108,0.031-0.221-0.027-0.258-0.131c-0.365-1.105-1.427-1.795-2.458-2.221C65.856,99.064,65.922,98.826,66.075,98.865       L66.075,98.865z" />
				</g>
			</g>
			<g>
				<g>
					<path style="fill:#638D29;" d="M73.88,76.738c0,0,0.218,1.64-0.91,1.717c-0.867,0.132-1.648-1.134-2.55-2.036       c-1.018-0.718-2.334-0.74-3.711-0.076c0.263-2.572,0.229-5.054,0.081-7.175c0.778,0.132,5.819,1.084,8.144,4.208       C76.158,75.399,74.688,77.176,73.88,76.738z" />
				</g>
			</g>
			<g>
				<g>
					<path style="fill:#4E7218;" d="M72.954,74.883c0.62,0.437,1.037,1.148,1.074,1.905c0.005,0.071-0.049,0.131-0.119,0.136       c-0.063,0.004-0.117-0.038-0.132-0.096c-0.191-0.627-0.575-1.178-1.066-1.597C72.488,75.069,72.727,74.73,72.954,74.883       L72.954,74.883z" />
				</g>
			</g>
			<g>
				<g>
					<path style="fill:#638D29;" d="M65.694,62.99c-2.892-0.122-5.791-0.886-8.298-2.346c-0.091-0.054-0.121-0.171-0.068-0.262       c0.05-0.085,0.156-0.117,0.244-0.077c2.602,1.121,5.359,1.844,8.15,2.305C65.956,62.639,65.932,62.996,65.694,62.99       L65.694,62.99z" />
				</g>
			</g>
			<g>
				<g>
					<path style="fill:#638D29;" d="M82.779,45.321c0.156-0.657,0.592-0.956,0.892-0.885c0.299,0.071,0.494,0.567,0.338,1.224       c-0.156,0.657-0.43,1.233-0.903,1.154C82.684,46.743,82.623,45.977,82.779,45.321z" />
				</g>
			</g>
			<g>
				<g>
					<path style="fill:#638D29;" d="M79.391,45.321c-0.156-0.657-0.592-0.956-0.892-0.885c-0.299,0.071-0.494,0.567-0.339,1.224       c0.156,0.657,0.43,1.233,0.903,1.154C79.486,46.743,79.547,45.977,79.391,45.321z" />
				</g>
			</g>
			<g>
				<g>
					<path style="fill:#F1CC9D;" d="M68.894,55.141c0,0-0.174,2.873,0.516,3.112c0.689,0.239,2.321-1.995,2.321-1.995L68.894,55.141       z" />
				</g>
			</g>
			<g>
				<g>
					<path style="fill:#F1CC9D;" d="M73.933,56.774c0,0,0.373,2.975,1.29,2.975c0.917,0,1.823-2.717,1.823-2.717L73.933,56.774z" />
				</g>
			</g>
			<g>
				<g>
					<path style="fill:#638D29;" d="M57.988,31.777c-2.172,0.017-4.408,0.446-6.499,1.462c1.275-2.401,2.64-3.541,2.64-3.541       C55.862,30.064,57.299,31.169,57.988,31.777z" />
				</g>
			</g>
			<g>
				<g>
					<path style="fill:#638D29;" d="M44.616,48.987c-2.074-1.917-2.844-3.6-2.844-3.6c0.884-1.705,2.508-2.852,3.213-3.29       C44.463,44.537,44.454,47.002,44.616,48.987z" />
				</g>
			</g>
			<g>
				<g>
					<path style="fill:#638D29;" d="M39.499,72.708c-0.137-0.607,0.517-1.273,1.462-1.486c0.944-0.213,1.821,0.106,1.959,0.713       c0.137,0.607-0.517,1.273-1.462,1.486C40.513,73.635,39.636,73.315,39.499,72.708z" />
				</g>
			</g>
			<g>
				<g>
					<path style="fill:#638D29;" d="M35.58,71.505c-0.498-0.498-0.347-1.457,0.338-2.141c0.685-0.685,1.644-0.836,2.142-0.338       c0.498,0.498,0.347,1.457-0.338,2.141S36.078,72.003,35.58,71.505z" />
				</g>
			</g>
			<g>
				<g>
					<path style="fill:#638D29;" d="M34.624,76.517c-0.332-0.332-0.248-0.954,0.188-1.39c0.436-0.436,1.058-0.52,1.39-0.188       s0.248,0.954-0.188,1.39C35.578,76.765,34.956,76.849,34.624,76.517z" />
				</g>
			</g>
			<g>
				<g>
					<path style="fill:#638D29;" d="M41.896,66.904c-0.621-0.39-0.668-1.432-0.106-2.326c0.562-0.894,1.522-1.303,2.143-0.912       c0.621,0.391,0.668,1.432,0.106,2.326C43.476,66.886,42.517,67.295,41.896,66.904z" />
				</g>
			</g>
			<g>
				<g>
					<path style="fill:#638D29;" d="M49.176,34.71c-1.845,1.517-3.001,3.49-3.702,5.581c-0.799-2.784-0.497-4.25-0.497-4.25       C46.456,35.046,48.262,34.782,49.176,34.71z" />
				</g>
			</g>
			<g>
				<g>
					<path style="fill:#4E7218;" d="M70.083,100.56c0.068-0.826-0.418-1.566-1.086-2.028c-0.218-0.155,0.02-0.498,0.241-0.35       c0.608,0.367,1.088,1.003,1.154,1.726c0.024,0.241,0.01,0.473-0.063,0.715c-0.02,0.067-0.091,0.105-0.158,0.085       C70.106,100.688,70.072,100.623,70.083,100.56L70.083,100.56z" />
				</g>
			</g>
			<g>
				<g>
					<path d="M58.432,45.301c0-1.438,0.856-2.603,1.913-2.603c1.056,0,1.913,1.166,1.913,2.603s-0.856,2.603-1.913,2.603       C59.288,47.904,58.432,46.739,58.432,45.301z" />
				</g>
			</g>
			<g>
				<g>
					<path style="fill:#FA965B;" d="M52.594,49.774c0-1.203,1.404-2.178,3.135-2.178c1.731,0,3.135,0.975,3.135,2.178       c0,1.203-1.404,2.178-3.135,2.178C53.998,51.952,52.594,50.977,52.594,49.774z" />
				</g>
			</g>
			<g>
				<g>
					<path style="fill:#BDC37A;" d="M66.71,76.343c-0.111,1.122-0.281,2.257-0.519,3.392c-1.194,5.649-4.144,11.153-10.677,13.716       c-1.326,0.523-2.797,0.922-4.429,1.177c0,0-2.984,0.421-7.234,0.349c0.361-2.589,1.777-5.759,1.777-5.759       c12.207,2.822,13.831-10.201,14.647-13.074c1.488-5.237,1.352-11.077,3.855-11.668c1.012-0.242,1.692-0.085,2.142,0.251       c0.183,1.114,0.391,2.648,0.519,4.442C66.939,71.289,66.973,73.771,66.71,76.343z" />
				</g>
			</g>
			<g>
				<g>
					<path style="fill:#7FAB3C;" d="M47.939,80.556c0,0,9.403,7.942,0.305,17.04c0,0,5.236,2.872,3.609,5.622       c-1.628,2.749-13.846,1.231-15.834-4.173c-1.019-2.283,1.326-4.64,1.326-4.64s-3.704-3.172-2.774-9.157       C35.501,79.263,43.333,76.634,47.939,80.556z" />
				</g>
			</g>
			<g>
				<g>
					<path style="fill:#638D29;" d="M37.262,94.502c-2.557-2.281-3.459-5.98-2.817-9.273c0.024-0.165,0.279-0.131,0.252,0.039       c-0.392,3.217,0.44,6.675,2.731,9.04C37.554,94.412,37.387,94.613,37.262,94.502L37.262,94.502z" />
				</g>
			</g>
			<g>
				<g>
					<path style="fill:#638D29;" d="M48.021,80.458c4.072,3.489,5.904,9.265,2.844,14.011c-0.083,0.136-0.3,0.015-0.22-0.129       c2.753-4.758,0.995-10.093-2.788-13.688C47.729,80.551,47.896,80.346,48.021,80.458L48.021,80.458z" />
				</g>
			</g>
			<g>
				<g>
					<path style="fill:#638D29;" d="M46.197,101.414c1.087,0.473,1.676,1.719,1.481,2.865c-0.014,0.117-0.12,0.2-0.236,0.186       c-0.113-0.013-0.195-0.113-0.187-0.225c0.113-1.012-0.315-2.036-1.169-2.596C45.944,101.571,46.052,101.346,46.197,101.414       L46.197,101.414z" />
				</g>
			</g>
			<g>
				<g>
					<path style="fill:#638D29;" d="M49.681,100.554c1.149,0.549,1.549,1.936,1.46,3.12c-0.003,0.117-0.101,0.21-0.218,0.206       c-0.121-0.003-0.213-0.107-0.206-0.226c0.021-1.048-0.236-2.241-1.143-2.869C49.427,100.715,49.533,100.485,49.681,100.554       L49.681,100.554z" />
				</g>
			</g>
			<g>
				<g>
					<g>
						<path style="fill:#7FAB3C;" d="M51.595,73.904c0.371,1.804,2.688,2.651,4.025,2.773c1.337,0.122,2.092,0.051,2.552,1.154        c0.461,1.102,1.946,2.53,2.896,1.963c0.95-0.567,0.368-2.994,0.368-2.994c0.459,0.883,1.239,2.451,2.282,1.792        c1.417-0.96-0.242-5.261-3.485-6.872c-3.244-1.611-3.933-4.667-3.933-4.667L51.595,73.904z" />
					</g>
				</g>
				<g>
					<g>
						<path style="fill:#638D29;" d="M56.425,67.024c0.517,1.774,1.783,3.31,3.366,4.253c1.027,0.516,2.024,1.147,2.774,2.029        c1.058,1.194,2.698,3.903,1.382,5.366c-0.803,0.706-1.72-0.051-2.132-0.767c-0.215-0.329-0.389-0.673-0.563-1.009l0.386-0.144        c0.164,0.964,0.39,2.054-0.183,2.947c-0.804,0.96-2.098,0.062-2.712-0.656c-1.093-1.221-0.566-2.087-2.631-2.149        c-1.852-0.101-4.164-0.959-4.642-2.964c-0.014-0.069,0.03-0.136,0.099-0.151c0.069-0.014,0.136,0.031,0.151,0.099        c0.281,1.225,1.467,1.966,2.597,2.34c0.898,0.34,1.849,0.268,2.794,0.451c0.33,0.074,0.673,0.251,0.901,0.531        c0.402,0.563,0.533,1.116,1.012,1.591c0.767,0.903,2.243,1.577,2.369-0.124c0.052-0.595-0.029-1.228-0.158-1.822        c-0.024-0.112,0.047-0.223,0.159-0.247c0.093-0.02,0.186,0.026,0.228,0.106c0.176,0.335,0.347,0.666,0.548,0.969        c0.332,0.519,0.907,1.184,1.508,0.688c0.71-0.795,0.211-2.076-0.172-2.966c-0.634-1.326-1.645-2.499-2.903-3.267        c-0.652-0.37-1.365-0.727-1.937-1.221c-1.188-0.993-2.082-2.324-2.49-3.827C56.134,66.921,56.388,66.848,56.425,67.024        L56.425,67.024z" />
					</g>
				</g>
			</g>
			<g>
				<g>
					<path style="fill:#638D29;" d="M63.622,51.027c4.188,4.104,10.273,6.131,16.089,5.517c1.944-0.194,3.869-0.624,5.735-1.248       c0.101-0.038,0.215,0.016,0.248,0.119c0.033,0.099-0.02,0.206-0.118,0.241c-0.938,0.341-1.882,0.674-2.851,0.916       c-4.859,1.279-10.196,0.77-14.624-1.648c-1.768-0.957-3.403-2.145-4.767-3.645C63.174,51.094,63.448,50.832,63.622,51.027       L63.622,51.027z" />
				</g>
			</g>
		</g>
		
</svg>
