<?xml version="1.0" encoding="utf-8"?>
<svg version="1.1" xmlns="http://www.w3.org/2000/svg" xmlns:xlink="http://www.w3.org/1999/xlink"
     viewBox="184 194 108 84" width="200" height="200" xml:space="preserve">
<g xmlns="http://www.w3.org/2000/svg">
			<g>
				<g>
					<g>
						<path style="fill:#7FAB3C;" d="M284.564,251.995c-1.717,2.817-8.101,10.766-23.011,5.117c0,0-3.345,1.454-8.518,2.678        c-0.608,0.149-1.241,0.289-1.9,0.425c-3.009,0.616-6.499,1.114-10.235,1.22c-4.578,0.136-9.525-0.31-14.401-1.828        c-0.293-0.089-0.578-0.187-0.859-0.289c-5.704-2.045-8.96-6.019-10.698-9.028c-1.284-2.227-1.738-3.923-1.738-3.923        c1.309-0.289,2.448-0.731,3.434-1.262c4.931-2.678,6.061-7.689,6.061-7.689c15.196,2.444,16.624-12.008,16.624-12.008        s10.796-2.117,18.991,4.501c8.195,6.622,7.54,15.357,16.874,20.186c3.377,1.597,6.732,1.92,8.935,1.324        C284.467,251.326,284.75,251.691,284.564,251.995z" />
					</g>
				</g>
			</g>
			<g>
				<g>
					<path style="fill:#7FAB3C;" d="M239.323,225.408c0,0-1.428,14.452-16.624,12.008c0,0-1.628,7.217-9.496,8.951       c-0.276,0.064-0.548,0.128-0.812,0.191c-2.346,0.484-9.296,1.449-14.056-2.784c0,0-1.312,0.791-1.828,1.942       c-0.078,0.174-0.293,0.231-0.447,0.118c-1.295-0.954-5.82-5.123-1.215-14.208c0,0,2.958-3.621,7.719-7.523       c1.335-1.101,2.814-2.219,4.412-3.286c1.998-1.339,4.182-2.593,6.499-3.621c0,0,2.967-4.616,4.884-9.317       c1.917-4.701,3.434-6.762,8.535-4.811C231.996,205.022,241.223,212.329,239.323,225.408z" />
				</g>
			</g>
			<g>
				<g>
					<path d="M211.36,232.061c0,1.329-0.692,2.406-1.546,2.406c-0.854,0-1.546-1.077-1.546-2.406c0-1.328,0.692-2.406,1.546-2.406       C210.667,229.656,211.36,230.733,211.36,232.061z" />
				</g>
			</g>
			<g>
				<g>
					<path style="fill:#638D29;" d="M198.333,243.518c2.61-0.376,5.389-1.413,6.875-3.71c0.099-0.161,0.204-0.321,0.312-0.48       c0.159-0.25,0.565-0.034,0.447,0.237c-1.108,3.045-4.546,4.565-7.626,4.463C198.028,244.012,198.02,243.543,198.333,243.518       L198.333,243.518z" />
				</g>
			</g>
			<g>
				<g>
					<path style="fill:#638D29;" d="M198.292,237.221c0,0.442-0.237,0.8-0.529,0.8c-0.292,0-0.529-0.358-0.529-0.8       s0.237-0.8,0.529-0.8C198.055,236.421,198.292,236.779,198.292,237.221z" />
				</g>
			</g>
			<g>
				<g>
					<path style="fill:#F1CC9D;" d="M206.977,220.817c-1.598,1.067-3.077,2.185-4.412,3.286c-3.035-3.664-3.885-8.922-4.11-10.932       c-0.025-0.225,0.264-0.34,0.399-0.157C201.073,216.018,204.457,218.891,206.977,220.817z" />
				</g>
			</g>
			<g>
				<g>
					<path style="fill:#F1CC9D;" d="M215.478,219.667c-1.776-1.208-7.667-5.392-10.981-9.873c-0.135-0.183-0.424-0.07-0.399,0.157       c0.262,2.366,1.396,9.237,5.932,12.706c1.735,1.434,4.576,0.316,5.718-2.023C215.914,220.293,215.791,219.88,215.478,219.667z" />
				</g>
			</g>
			<g>
				<g>
					<path style="fill:#F1CC9D;" d="M199.316,229.097c-0.833-0.582-2.679-2.044-3.555-4.099c-0.095-0.223-0.401-0.245-0.522-0.035       c-0.592,1.031-1.681,3.562-0.393,6.663c0.606,1.222,2.663,0.64,3.672-0.134c0.633-0.486,0.938-1.067,1.085-1.498       C199.717,229.663,199.603,229.298,199.316,229.097z" />
				</g>
			</g>
			<g>
				<g>
					<path style="fill:#638D29;" d="M249.928,260.448c-0.03,0.225-0.659,4.684-1.318,6.695c-0.047,0.115-0.089,0.229-0.119,0.348       c-0.017,0.064-0.03,0.132-0.042,0.196c-0.519,0.166-1.131,0.314-1.836,0.408c-0.752,0.106-1.611,0.153-2.572,0.094       c-0.174-0.008-0.344-0.021-0.502-0.038c-0.378-0.038-0.71-0.085-1.003-0.149c-1.828-0.378-2.176-1.203-2.13-2.095       c0.017-0.37,0.102-0.752,0.183-1.118c0.242-1.139,0.298-2.733,0.31-3.354C244.148,261.341,247.208,260.954,249.928,260.448z" />
				</g>
			</g>
			<g>
				<g>
					<path style="fill:#638D29;" d="M223.592,258.451c-0.272,2.406-0.799,5.054-1.777,7.523c-0.161,0.336-0.336,0.714-0.434,1.105       c-0.064,0.238-0.102,0.485-0.094,0.723c-1.275,0.625-2.895,0.944-4.518,0.922c-0.961-0.008-1.921-0.132-2.81-0.382       c-0.289-0.081-0.569-0.17-0.837-0.281c-0.132-0.047-0.264-0.102-0.391-0.162c-1.573-0.714-1.832-1.602-1.577-2.673       c0.234-0.961,0.884-2.074,1.381-3.341c1.301-3.995,2.146-9.674,2.406-11.595C216.46,252.921,219.138,256.283,223.592,258.451z" />
				</g>
			</g>
			<g>
				<g>
					<path style="fill:#4E7218;" d="M213.123,268.061c-0.132-0.047-0.264-0.102-0.391-0.162c-1.573-0.714-1.832-1.602-1.577-2.673       c0.319-0.395,0.727-0.714,1.165-0.582C213.145,264.899,213.408,266.352,213.123,268.061z" />
				</g>
			</g>
			<g>
				<g>
					<path style="fill:#4E7218;" d="M216.77,268.724c-0.961-0.008-1.921-0.132-2.81-0.382c0.293-0.995,0.876-2.41,1.777-2.338       C216.575,266.068,216.758,267.56,216.77,268.724z" />
				</g>
			</g>
			<g>
				<g>
					<path style="fill:#BDC27B;" d="M253.035,259.79c-0.608,0.149-1.241,0.289-1.9,0.425c-3.009,0.616-6.499,1.114-10.235,1.22       c-4.578,0.136-9.525-0.31-14.401-1.828c-0.293-0.089-0.578-0.187-0.859-0.289c-5.704-2.045-8.96-6.019-10.698-9.028       c-1.284-2.227-1.738-3.923-1.738-3.923c1.309-0.289,2.448-0.731,3.434-1.262c1.267,1.794,7.132,9.024,19.807,10.018       c9.117,0.595,15.901-0.812,15.901-0.812L253.035,259.79z" />
				</g>
			</g>
			<g>
				<g>
					<path style="fill:#638D29;" d="M251.895,237.324c-0.214,0.517-0.99,0.686-1.732,0.378c-0.742-0.308-1.169-0.977-0.955-1.493       c0.214-0.517,0.99-0.686,1.732-0.378C251.682,236.139,252.11,236.807,251.895,237.324z" />
				</g>
			</g>
			<g>
				<g>
					<path style="fill:#638D29;" d="M247.976,232.794c-0.262,0.632-1.238,0.828-2.179,0.437c-0.941-0.391-1.491-1.22-1.228-1.852       c0.263-0.632,1.238-0.828,2.179-0.437C247.689,231.332,248.239,232.161,247.976,232.794z" />
				</g>
			</g>
			<g>
				<g>
					<path style="fill:#638D29;" d="M254.38,233.508c-0.342,0.593-1.399,0.623-2.361,0.068c-0.962-0.555-1.464-1.486-1.121-2.078       c0.342-0.593,1.399-0.623,2.361-0.068C254.22,231.984,254.723,232.915,254.38,233.508z" />
				</g>
			</g>
			<g>
				<g>
					<path style="fill:#638D29;" d="M259.392,239.177c-0.44,0.642-1.616,0.602-2.625-0.09c-1.01-0.692-1.471-1.774-1.031-2.417       c0.44-0.642,1.616-0.602,2.626,0.09C259.371,237.453,259.833,238.535,259.392,239.177z" />
				</g>
			</g>
			<g>
				<g>
					<path style="fill:#638D29;" d="M235.168,228.199c-0.198,0.753-1.616,1.033-3.168,0.625c-1.552-0.408-2.649-1.349-2.451-2.103       c0.198-0.753,1.617-1.033,3.168-0.625C234.268,226.505,235.366,227.446,235.168,228.199z" />
				</g>
			</g>
			<g>
				<g>
					<path style="fill:#638D29;" d="M236.385,220.407c0,0.779-1.301,1.41-2.905,1.41c-1.604,0-2.905-0.631-2.905-1.41       s1.301-1.41,2.905-1.41C235.084,218.997,236.385,219.628,236.385,220.407z" />
				</g>
			</g>
			<g>
				<g>
					<path style="fill:#638D29;" d="M233.768,212.928c0.279,0.727-0.709,1.783-2.208,2.357c-1.498,0.574-2.939,0.451-3.217-0.277       c-0.279-0.727,0.71-1.782,2.208-2.357C232.049,212.077,233.489,212.2,233.768,212.928z" />
				</g>
			</g>
			<g>
				<g>
					<path style="fill:#638D29;" d="M227.431,206.725c0.603,0.493,0.27,1.899-0.745,3.142c-1.015,1.243-2.326,1.851-2.93,1.358       s-0.27-1.899,0.745-3.142C225.516,206.841,226.828,206.233,227.431,206.725z" />
				</g>
			</g>
			<g>
				<g>
					<path style="fill:#7FAB3C;" d="M261.201,266.816c-0.395,1.938-2.232,3.056-6.172,3.396c-0.416,0.034-0.854,0.06-1.318,0.077       c-0.761,0.03-1.424,0.009-2.002-0.051c-0.344-0.034-0.659-0.085-0.939-0.149c-1.913-0.421-2.482-1.42-2.321-2.401       c0.013-0.064,0.025-0.132,0.042-0.196c0.03-0.119,0.072-0.234,0.119-0.348c0.659-2.01,1.288-6.469,1.318-6.695       c0.004-0.004,0.004-0.008,0.004-0.008c-3.745-6.023-1.522-10.69-1.522-10.69c6.529-3.103,10.698-1.139,10.698-1.139       c2.47,2.278,2.389,5.398,2.444,8.501C261.604,260.215,261.634,264.673,261.201,266.816z" />
				</g>
			</g>
			<g>
				<g>
					<path style="fill:#638D29;" d="M250.77,270.089c-2.04-0.451-2.55-1.551-2.278-2.597c0.251-0.578,0.599-1.05,1.067-1.029       C250.625,266.514,251.033,267.666,250.77,270.089z" />
				</g>
			</g>
			<g>
				<g>
					<path style="fill:#638D29;" d="M255.029,270.212c-0.416,0.034-0.854,0.06-1.318,0.077c-0.761,0.03-1.424,0.009-2.002-0.051       c0.123-1.186,0.502-3.29,1.594-3.23C254.447,267.066,254.957,268.762,255.029,270.212z" />
				</g>
			</g>
			<g>
				<g>
					<path style="fill:#7FAB3C;" d="M236.301,252.9c0,0-1.122,11.502-2.18,14.214c-0.837,2.155-3.128,3.145-6.38,3.175       c-0.846,0.013-1.76-0.043-2.733-0.161c-0.242-0.03-0.468-0.064-0.68-0.098c-0.31-0.055-0.591-0.119-0.842-0.187       c-1.666-0.459-2.176-1.233-2.197-2.04c-0.008-0.238,0.03-0.485,0.094-0.723c0.098-0.391,0.272-0.769,0.434-1.105       c0.978-2.469,1.505-5.118,1.777-7.523c0.506-4.463,0.14-8.067,0.14-8.067C230.767,247.217,236.301,252.9,236.301,252.9z" />
				</g>
			</g>
			<g>
				<g>
					<path style="fill:#638D29;" d="M223.466,258.436c0.175-2.676,0.244-5.361,0.14-8.04c-0.005-0.071,0.051-0.133,0.122-0.136       c0.066-0.003,0.123,0.046,0.132,0.11c0.264,2.019,0.257,4.056,0.101,6.08c-0.051,0.675-0.139,1.346-0.242,2.014       C223.697,258.621,223.453,258.596,223.466,258.436L223.466,258.436z" />
				</g>
			</g>
			<g>
				<g>
					<path style="fill:#638D29;" d="M236.428,252.912c-0.207,2.676-0.558,5.611-0.987,8.26c-0.022,0.154-0.268,0.129-0.253-0.03       c0.136-1.917,0.42-4.286,0.675-6.2c0.094-0.688,0.199-1.374,0.312-2.061C236.198,252.727,236.443,252.754,236.428,252.912       L236.428,252.912z" />
				</g>
			</g>
			<g>
				<g>
					<path style="fill:#638D29;" d="M239.577,225.433c-1.22,9.13-7.884,13.995-16.942,12.386c0,0,0.464-0.314,0.464-0.314       c-0.322,1.18-0.804,2.239-1.417,3.252c-1.818,3.052-4.956,5.173-8.423,5.859c-0.136,0.035-0.275-0.047-0.31-0.183       c-0.037-0.144,0.057-0.285,0.2-0.315c2.158-0.545,4.216-1.584,5.805-3.158c1.579-1.521,2.778-3.551,3.35-5.648       c0.054-0.205,0.256-0.331,0.46-0.3c2.003,0.324,4.034,0.344,6.013,0.019c5.768-0.938,9.439-6.125,10.291-11.648       C239.09,225.062,239.613,225.077,239.577,225.433L239.577,225.433z" />
				</g>
			</g>
			<g>
				<g>
					<path style="fill:#638D29;" d="M223.486,269.842c-2.163-0.595-2.38-1.721-2.104-2.763c0.289-0.459,0.642-0.786,1.058-0.731       C223.495,266.484,223.856,267.598,223.486,269.842z" />
				</g>
			</g>
			<g>
				<g>
					<path style="fill:#638D29;" d="M227.741,270.288c-0.846,0.013-1.76-0.043-2.733-0.161c-0.242-0.03-0.468-0.064-0.68-0.098       c0.285-1.25,0.854-2.92,1.862-2.784C227.269,267.389,227.698,268.877,227.741,270.288z" />
				</g>
			</g>
			<g>
				<g>
					<path style="fill:#638D29;" d="M259.196,248.517c1.853,1.516,2.456,4.007,2.494,6.303c0.027,0.767,0.009,1.529-0.009,2.29       c-0.001,0.07-0.059,0.127-0.13,0.125c-0.067-0.001-0.121-0.055-0.125-0.121c-0.131-2.894-0.144-6.271-2.403-8.41       C258.909,248.596,259.076,248.411,259.196,248.517L259.196,248.517z" />
				</g>
			</g>
			<g>
				<g>
					<path style="fill:#638D29;" d="M249.824,260.507c-2.072-3.115-3.059-7.265-1.529-10.812c0.064-0.143,0.294-0.052,0.235,0.098       c-1.26,3.514-0.305,7.434,1.51,10.58C250.132,260.511,249.91,260.654,249.824,260.507L249.824,260.507z" />
				</g>
			</g>
			<g>
				<g>
					<path style="fill:#4E7218;" d="M242.537,268.001c-1.828-0.378-2.176-1.203-2.13-2.095c0.225-0.37,0.506-0.625,0.85-0.608       C242.175,265.336,242.609,266.204,242.537,268.001z" />
				</g>
			</g>
			<g>
				<g>
					<path style="fill:#4E7218;" d="M246.613,268.095c-0.752,0.106-1.611,0.153-2.572,0.094c-0.174-0.008-0.344-0.021-0.502-0.038       c0.204-1.114,0.621-2.359,1.462-2.312C245.899,265.885,246.405,266.939,246.613,268.095z" />
				</g>
			</g>
			<g>
				<g>
					<path style="fill:#FA965B;" d="M210.83,236.439c0-1.203,1.403-2.178,3.135-2.178c1.731,0,3.135,0.975,3.135,2.178       s-1.404,2.178-3.135,2.178C212.233,238.617,210.83,237.642,210.83,236.439z" />
				</g>
			</g>
		</g>
		
</svg>
