<?xml version="1.0" encoding="utf-8"?>
<svg version="1.1" xmlns="http://www.w3.org/2000/svg" xmlns:xlink="http://www.w3.org/1999/xlink"
     viewBox="2165 595 650 730" width="200" height="200" xml:space="preserve">
<g xmlns="http://www.w3.org/2000/svg">
		<g>
			<g>
				<path style="fill:#578C22;" d="M2477.507,1169.378c-3.182,11.2-2.931,31.808-4.041,51.44      c-1.312,23.231-6.94,45.564,0.224,51.776c8.728,7.568,62.262,6.826,70.171-1.666c9.019-9.684,4.586-41.634,6.595-57.115      c2.339-18.023,3.015-39.691-10.897-53.489C2524.127,1145.02,2484.055,1146.332,2477.507,1169.378z" />
				<path style="fill:#42232B;" d="M2494.089,1258.878c-5.109,0-9.251,7.363-9.251,16.446c0,0.353,0.017,0.697,0.03,1.044      c5.237,0.867,11.669,1.342,18.356,1.434c0.069-0.81,0.116-1.633,0.116-2.478      C2503.34,1266.241,2499.198,1258.878,2494.089,1258.878z" />
				<path style="fill:#42232B;" d="M2474.357,1255.585c-1.525,0-2.954,0.72-4.194,1.966c-0.217,7.073,0.546,12.458,3.528,15.044      c1.59,1.379,4.672,2.481,8.69,3.311c0.326-1.608,0.513-3.335,0.513-5.143      C2482.895,1262.381,2479.072,1255.585,2474.357,1255.585z" />
			</g>
			<g>
				<path style="fill:#578C22;" d="M2314.823,1163.23c-3.42,12.037-3.151,34.186-4.343,55.288      c-1.41,24.968-7.459,48.971,0.241,55.648c4.501,3.903,20.092,5.75,36.031,5.606c17.278-0.156,25.497-1.387,29.918-6.134      c9.694-10.409,0.293-34.64,3.931-62.436c2.535-19.369,1.917-46.599-12.975-61.49      C2355.229,1137.314,2321.86,1138.461,2314.823,1163.23z" />
				<path style="fill:#42232B;" d="M2332.646,1259.423c-5.491,0-9.943,7.914-9.943,17.676c0,0.379,0.019,0.749,0.032,1.122      c5.629,0.931,12.542,1.443,19.729,1.541c0.074-0.871,0.125-1.755,0.125-2.663      C2342.588,1267.337,2338.137,1259.423,2332.646,1259.423z" />
				<path style="fill:#42232B;" d="M2311.437,1255.885c-1.64,0-3.175,0.774-4.507,2.113c-0.233,7.602,0.586,13.39,3.792,16.169      c1.709,1.482,5.022,2.666,9.34,3.559c0.351-1.728,0.552-3.584,0.552-5.527      C2320.613,1263.188,2316.505,1255.885,2311.437,1255.885z" />
			</g>
		</g>
		<path style="fill:#6DA03B;" d="M2348.281,794.332c-23.939,13.251-55.638,23.727-81.059,11.953    c-26.378-12.218-42.333-40.93-52.73-67.76c-11.321-29.215-4.542-57.641,23.9-72.628c93.887-49.472,154.345-31.816,183.255,14.267    c28.91,46.083,26.27,120.594-6.04,184.831c-15.171,30.163-39.07,121.083-21.646,151.205c8.236,14.238,48.311,17.502,86.245,6.791    c63.436-17.912,139.613-8.811,165.232,66.119c8.758,25.614,17.253,52.23,33.317,75.826c28.473,41.821,91.712-13.983,102.132-5.982    c12.6,9.676-72.809,128.167-185.486,68.123c-57.182,11.995-121.085,21.11-172.865,10.762    c-82.781-16.542-138.607-54.664-145.244-156.136C2269.331,959.947,2394.024,824.01,2348.281,794.332z" />
		<path style="fill:#E0A655;" d="M2695.445,1221.734c-37.246,6.191-67.653-1.136-100.402-31.286    c-25.246-23.243-126.396,19.368-222.933-38.434c-54.188-32.445-53.002-113.133-46.29-158.194    c12.152-81.582,80.969-171.676,50.22-226.233c-8.149,12.827-12.772,17.683-27.759,26.746    c45.743,29.677-78.95,165.615-70.987,287.37c6.637,101.473,62.463,139.594,145.244,156.137    c51.78,10.347,115.683,1.233,172.865-10.762c105.443,56.189,186.999-43.96,186.713-64.983    C2763.949,1193.997,2716.31,1218.266,2695.445,1221.734z" />
		<g>
			<g>
				<path style="fill:#6DA03B;" d="M2520.059,1163.985c-3.639,12.807-3.352,36.373-4.621,58.825      c-1.501,26.565-7.937,52.104,0.257,59.208c9.981,8.655,71.199,7.806,80.243-1.905c10.313-11.074,5.244-47.61,7.541-65.313      c2.675-20.61,3.448-45.388-12.462-61.167C2573.372,1136.131,2527.547,1137.631,2520.059,1163.985z" />
				<path style="fill:#42232B;" d="M2539.022,1266.332c-5.843,0-10.579,8.42-10.579,18.807c0,0.403,0.02,0.797,0.034,1.194      c5.989,0.991,13.344,1.535,20.991,1.639c0.079-0.927,0.133-1.868,0.133-2.833      C2549.601,1274.752,2544.865,1266.332,2539.022,1266.332z" />
				<path style="fill:#42232B;" d="M2516.457,1262.567c-1.745,0-3.378,0.823-4.796,2.248c-0.248,8.089,0.624,14.246,4.034,17.203      c1.818,1.577,5.343,2.837,9.938,3.787c0.373-1.839,0.587-3.813,0.587-5.881      C2526.22,1270.338,2521.849,1262.567,2516.457,1262.567z" />
			</g>
			<g>
				<path style="fill:#6DA03B;" d="M2369.606,1163.314c-3.639,12.807-3.352,36.374-4.62,58.825      c-1.501,26.565-7.937,52.104,0.256,59.208c4.79,4.153,21.377,6.118,38.336,5.965c18.383-0.166,27.128-1.476,31.832-6.527      c10.314-11.074,0.312-36.856,4.183-66.43c2.697-20.608,2.039-49.579-13.805-65.424      C2412.597,1135.739,2377.094,1136.96,2369.606,1163.314z" />
				<path style="fill:#42232B;" d="M2388.569,1265.661c-5.843,0-10.579,8.42-10.579,18.807c0,0.403,0.02,0.797,0.034,1.194      c5.989,0.991,13.344,1.535,20.991,1.639c0.079-0.927,0.133-1.868,0.133-2.833      C2399.148,1274.081,2394.411,1265.661,2388.569,1265.661z" />
				<path style="fill:#42232B;" d="M2366.004,1261.895c-1.744,0-3.378,0.823-4.796,2.248c-0.248,8.089,0.624,14.246,4.034,17.203      c1.819,1.577,5.343,2.837,9.938,3.787c0.373-1.839,0.587-3.813,0.587-5.881      C2375.767,1269.666,2371.396,1261.895,2366.004,1261.895z" />
			</g>
		</g>
		<g>
			<path style="fill:#346F2A;" d="M2260.784,727.448c-0.103-4.775,1.833-8.689,4.324-8.743c2.491-0.054,4.594,3.774,4.697,8.548     c0.103,4.775-1.833,8.689-4.324,8.743C2262.99,736.05,2260.887,732.223,2260.784,727.448z" />
			<path style="fill:#346F2A;" d="M2215.618,733.834c-1.394-3.742-1.6-7.119-0.461-7.543c1.139-0.424,3.192,2.265,4.585,6.007     c1.394,3.742,1.6,7.119,0.461,7.543C2219.064,740.265,2217.011,737.576,2215.618,733.834z" />
		</g>
		<g>
			<ellipse style="fill:#578C22;" cx="2342.81" cy="693.107" rx="26.081" ry="29.042" />
			<ellipse style="fill:#FFFFFF;" cx="2342.29" cy="695.428" rx="23.284" ry="25.927" />
			<path d="M2353.954,696.127c-1.203,1.872-3.299,3.115-5.689,3.115c-3.736,0-6.764-3.029-6.764-6.764     c0-0.921,0.186-1.798,0.519-2.598c-7.28,0.459-13.062,7.158-13.062,15.38c0,8.519,6.202,15.424,13.852,15.424     c7.65,0,13.852-6.906,13.852-15.424C2356.661,701.837,2355.648,698.686,2353.954,696.127z" />
			<path style="fill:#42232B;" d="M2364.149,660.595c-1.053,0-2.061-0.601-2.531-1.621c-2.975-6.449-8.844-9.746-13.342-10.154     c-1.849-0.169-5.251-0.014-7.296,2.894c-0.885,1.258-2.624,1.562-3.882,0.676c-1.259-0.885-1.562-2.623-0.677-3.882     c2.671-3.797,7.167-5.706,12.357-5.237c7.438,0.675,14.464,5.923,17.899,13.37c0.645,1.398,0.034,3.053-1.363,3.697     C2364.936,660.512,2364.539,660.595,2364.149,660.595z" />
		</g>
		<g>
			<path style="fill:#42232B;" d="M2287.521,803.495c-2.264,0-4.554-0.085-6.866-0.26c-0.739-0.055-1.294-0.701-1.238-1.44     c0.055-0.74,0.674-1.313,1.44-1.238c34.727,2.612,64.621-15.338,69.544-41.752c0.135-0.728,0.832-1.203,1.566-1.074     c0.729,0.136,1.211,0.838,1.074,1.568C2348.2,785.283,2320.626,803.495,2287.521,803.495z" />
			<path style="fill:#42232B;" d="M2353.759,760.514c-4.447,0-9.762-1.716-13.115-6.735c-0.412-0.618-0.246-1.451,0.371-1.864     c0.615-0.411,1.45-0.245,1.863,0.371c3.387,5.073,9.252,6.045,13.251,5.339c3.831-0.678,6.625-2.802,7.292-5.543     c0.176-0.721,0.903-1.165,1.623-0.988c0.721,0.176,1.163,0.903,0.988,1.623c-0.923,3.793-4.538,6.686-9.436,7.554     C2355.717,760.426,2354.76,760.514,2353.759,760.514z" />
		</g>
		
			<ellipse transform="matrix(0.9586 -0.2846 0.2846 0.9586 -109.4235 705.6091)" style="fill:#E080A2;" cx="2373.058" cy="729.295" rx="11.418" ry="8.06" />
		<path style="fill:#346F2A;" d="M2396.358,888.443c-1.333,4.507-0.485,9.404-1.547,13.982    c-3.606,15.541-27.214,22.336-26.338,38.266c0.452,8.224,7.744,14.52,9.64,22.536c3.835,16.216-14.98,29.49-16.438,46.089    c-0.421,4.795,1.04,10.197,5.16,12.686c5.644,3.41,13.062-0.104,19.455,1.511c15.856,4.005,12.649,33.082,28.434,37.359    c7.178,1.945,14.383-2.736,19.953-7.663c5.57-4.927,11.316-10.659,18.718-11.382c10.898-1.065,19.479,9.136,24.197,19.018    c4.717,9.882,8.359,21.263,17.584,27.162c11.189,7.156,26.581,3.077,36.898-5.287c9.964-8.078,16.794-19.549,26.956-27.376    s26.467-10.679,34.833-0.956c4.914,5.711,5.502,14.042,4.152,21.454c-1.35,7.412-4.358,14.438-5.812,21.83    c-0.927,4.715-1.104,9.978,1.632,13.928c4.009,5.785,12.306,6.302,19.297,5.483c6.99-0.819,14.603-2.271,20.66,1.313    c6.355,3.761,8.681,11.792,9.395,19.142c0.714,7.35,0.44,15.075,3.729,21.687c3.289,6.611,9.02,8.058,12.889,7.563    c5.158-0.66,10.434-1.194,12.781,0.013c4.968,2.554,3.834,11.307,4.536,14.265c1.498,6.319,8.066,8.493,13.881,5.98    c2.572-1.111,6.983-4.2,9.785-4.2c3.811,0,6.547,3.045,7.877,4.254c5.923,5.385,11.48,5.135,15.939,0.065    c3.46-3.933,7.461-6.954,11.973-7.76c2.042-0.365,4.153-0.042,6.205-0.342c4.748-0.693,8.366-4.524,11.268-8.345    c1.291-1.7,2.52-3.446,3.69-5.232c-23.977,11.086-59.563,27.971-78.982-0.552c-16.064-23.596-24.56-50.212-33.317-75.826    c-25.62-74.93-101.797-84.031-165.233-66.119c-37.935,10.711-78.01,7.447-86.245-6.791    c-15.832-27.37,2.452-104.928,17.306-141.502C2404.523,877.582,2398.365,881.66,2396.358,888.443z" />
		<g>
			<path style="fill:#578C22;" d="M2526.034,1106.036c5.894-6.37,11.834-12.782,18.832-17.914     c6.997-5.132,15.201-8.963,23.864-9.471c2.796-0.164,5.846,0.11,7.942,1.968c2.854,2.529,2.871,6.961,2.145,10.704     c-1.408,7.261-4.617,15.332-0.6,21.543c0.922,1.426,2.191,2.649,2.818,4.228c0.894,2.252,0.306,4.86-0.879,6.974     c-2.779,4.959-8.949,7.758-14.511,6.583c-4.383-0.926-8.029-3.958-12.282-5.363c-4.832-1.596-10.068-0.991-15.157-1.062     c-5.089-0.071-10.639-1.087-13.941-4.959C2520.963,1115.393,2522.871,1109.455,2526.034,1106.036z" />
			<path style="fill:#578C22;" d="M2453.109,1069.122c6.449,1.621,13.271,4.165,16.794,9.804c2.023,3.239,2.724,7.175,4.801,10.379     c2.964,4.572,8.8,8.086,8.4,13.521c-0.314,4.267-4.586,7.176-8.727,8.252c-3.074,0.799-6.396,0.947-9.385-0.129     c-4.499-1.62-7.614-5.71-11.712-8.175c-4.737-2.849-10.475-3.363-15.71-5.139s-10.547-5.732-10.777-11.255     c-0.219-5.256,4.198-9.477,8.569-12.405C2441.127,1070.113,2448.232,1067.896,2453.109,1069.122z" />
			<path style="fill:#578C22;" d="M2413.906,1069.328c-3.22-3.854-6.439-7.708-9.659-11.562c-1.619-1.938-3.446-4.001-5.932-4.441     c-3.296-0.584-6.514,2.158-7.389,5.389c-0.875,3.231,0.102,6.696,1.618,9.68c1.516,2.984,3.562,5.678,5.041,8.681     c1.141,2.316,2.057,4.951,4.209,6.377c2.441,1.617,5.701,1.139,8.466,0.179c3.761-1.307,7.746-4.3,7.334-8.26     C2417.284,1072.392,2414.661,1070.232,2413.906,1069.328z" />
			<path style="fill:#578C22;" d="M2507.202,1119.98c-2.259,1.387-5.459,1.86-6.777,4.16c-2.291,3.998,4.997,8.525,9.427,7.255     c3.427-0.983,5.832-4.953,4.707-8.336C2513.433,1119.675,2509.267,1118.713,2507.202,1119.98z" />
			<path style="fill:#578C22;" d="M2491.926,1099.495c3.754,4.962,8.882,8.201,14.579,6.8c2.221-0.546,4.618-2.055,4.654-4.342     c0.043-2.766-3.45-4.293-6.171-3.799c-0.909,0.165-1.823,0.469-2.737,0.332c-0.872-0.131-1.63-0.647-2.354-1.15     c-1.462-1.015-2.923-2.029-4.385-3.044c-0.592-0.411-1.806-0.877-2.524-0.929c-1.385-0.099-2.538,0.412-3.421,1.688     C2488.459,1096.654,2490.92,1098.165,2491.926,1099.495z" />
			<path style="fill:#578C22;" d="M2469.673,1119.886c1.261,0.093,2.564,0.011,3.751,0.447c0.852,0.313,1.591,0.877,2.247,1.505     c1.404,1.342,2.542,3.24,2.161,5.145c-0.617,3.091-4.676,4.115-7.746,3.398c-3.07-0.717-5.917-2.498-9.07-2.534     c-1.245-0.014-2.526,0.244-3.714-0.128c-2.341-0.733-3.293-3.499-3.682-5.92c-0.138-0.861-0.224-1.827,0.3-2.523     c0.396-0.527,1.055-0.775,1.686-0.966C2457.576,1117.712,2466.206,1119.63,2469.673,1119.886z" />
			<path style="fill:#578C22;" d="M2416.302,1095.598c-2.27,2.002-4.768,4.806-3.735,7.65c0.953,2.625,4.352,3.368,7.128,3.059     c2.776-0.309,7.229-7.389,4.961-9.952C2422.388,1093.792,2418.556,1093.609,2416.302,1095.598z" />
			<path style="fill:#578C22;" d="M2369.683,1064.637c1.297,2.589,4.439,5.01,6.912,3.505c1.697-1.033,1.986-3.333,2.103-5.316     c0.296-5.042,0.747-10.4,3.788-14.432c0.879-1.166,1.974-2.219,2.47-3.592c0.871-2.408-0.328-5.045-1.682-7.219     c-0.945-1.518-2.108-3.076-3.821-3.589c-2.868-0.86-5.713,1.654-6.955,4.378     C2371.258,1041.097,2362.275,1049.855,2369.683,1064.637z" />
			<path style="fill:#578C22;" d="M2603.795,1133.377c4.241-0.93,8.644-1.647,12.906-0.818s8.398,3.486,9.91,7.556     c1.349,3.631,0.454,7.716,1.236,11.51c0.395,1.915,1.211,3.918,0.525,5.749c-0.984,2.623-4.558,3.282-7.204,2.361     c-2.646-0.921-4.774-2.903-7.26-4.194c-3.626-1.883-7.848-2.219-11.682-3.631c-4.149-1.528-7.812-4.35-10.348-7.972     c-1.136-1.623-2.08-3.581-1.699-5.526c0.539-2.753,3.524-4.361,6.309-4.695     C2599.273,1133.384,2602.065,1133.756,2603.795,1133.377z" />
			<path style="fill:#578C22;" d="M2652.647,1174.622c3.206,0.371,6.701-1.337,9.546,0.187c1.102,0.59,1.917,1.59,2.7,2.564     c0.83,1.031,1.704,2.192,1.639,3.514c-0.099,2.016-2.404,3.28-4.42,3.178c-2.015-0.102-3.851-1.119-5.757-1.781     c-3.175-1.104-6.597-1.231-9.882-1.945s-6.665-2.213-8.332-5.131c-0.953-1.668-1.209-3.865-0.161-5.476s3.281-1.748,4.962-0.818     C2646.955,1171.133,2649.018,1174.202,2652.647,1174.622z" />
			<path style="fill:#578C22;" d="M2635.479,1152.899c-0.022-1.548-1.92-2.565-1.99-4.111s1.252-3.237,2.767-2.92     c1.134,0.237,1.788,1.396,2.298,2.436c0.541,1.105,1.083,2.211,1.624,3.316c0.516,1.054,1.034,2.31,0.491,3.351     c-0.656,1.257-2.556,1.341-3.72,0.532C2635.784,1154.694,2635.487,1153.413,2635.479,1152.899z" />
			<path style="fill:#578C22;" d="M2592.68,1122.975c3.228-1.239,6.877-1.345,10.172-0.298c0.979,0.312,2.025,0.818,2.383,1.782     c0.555,1.493-0.965,3.047-2.53,3.34c-1.565,0.293-3.162-0.193-4.753-0.257c-1.488-0.06-2.99,0.259-4.326,0.918     c-1.397,0.689-2.851,1.78-4.345,1.337c-1.667-0.495-2.2-2.887-1.192-4.304C2589.096,1124.075,2591.079,1123.589,2592.68,1122.975     z" />
			<path style="fill:#578C22;" d="M2577.329,1142.209c-1.763-0.918-3.553-1.847-5.495-2.27c-1.942-0.423-4.09-0.286-5.749,0.808     s-2.659,3.289-1.992,5.162c0.878,2.465,3.866,3.271,6.069,4.684c1.591,1.02,2.861,2.467,4.358,3.621     c1.497,1.154,3.395,2.035,5.242,1.631c3.097-0.677,4.386-4.782,3.178-7.713     C2581.73,1145.202,2579.015,1143.088,2577.329,1142.209z" />
			<path style="fill:#578C22;" d="M2621.59,1170.337c-1.187-1.274-2.564-2.317-3.818-3.526c-1.253-1.209-3.14-2.145-4.699-1.367     c-0.857,0.428-1.41,1.283-1.857,2.13c-0.703,1.333-1.236,3.002-0.46,4.294c1.3,2.168,4.938,1.378,6.662,3.226     c0.526,0.564,0.803,1.309,1.161,1.993c0.66,1.257,1.686,2.381,3.025,2.854c1.338,0.472,3.001,0.158,3.861-0.971     c1.123-1.474,0.521-3.67-0.642-5.113C2623.66,1172.416,2622.38,1171.185,2621.59,1170.337z" />
		</g>
	</g>
	
</svg>
