<?xml version="1.0" encoding="utf-8"?>
<svg version="1.1" xmlns="http://www.w3.org/2000/svg" xmlns:xlink="http://www.w3.org/1999/xlink"
     viewBox="147 112 119 79" width="200" height="200" xml:space="preserve">
<g xmlns="http://www.w3.org/2000/svg">
			<g>
				<g>
					<path style="fill:#7FAB3C;" d="M258.55,142.392c0,0-5.018,1.436-6.751,4.717c-0.9,1.698-3.152,7.155-7.687,12.346       c-4.238,4.859-10.466,9.478-19.438,10.573c-5.156,0.625-9.837,1.152-14.159,1.285c-5.887,0.177-11.104-0.368-15.927-2.372       c-4.393-1.813-8.462-4.836-12.417-9.606c-3.622-4.584-5.093-11.774-5.093-11.774c-13.729,3.848-20.821,0.452-21.22-4.468       c-0.333-4.167,5.076-7.509,8.36-8.511c1.427-0.434,2.744-1.161,3.905-2.106c2.886-2.349,7.992-6.982,14.163-5.133       c7.248,2.172,4.491,14.487,10.413,14.562c0.053,0,0.106,0,0.164-0.009c2.496-0.155,11.029-4.326,21.038-1.729       c5.696,1.481,9.221,4.375,12.514,6.734c2.629,1.884,5.107,3.422,8.422,3.622c7.469,0.457,10.732-9.296,16.318-10.24       C256.742,139.337,258.55,142.392,258.55,142.392z" />
				</g>
			</g>
			<g>
				<g>
					<path style="fill:#F89B34;" d="M226.416,146.9c-3.294-2.358-6.818-5.253-12.514-6.734c-10.009-2.598-18.543,1.574-21.038,1.729       c0.745-4.521,4.335-21.681,15.737-21.779C221.212,120.006,225.729,136.704,226.416,146.9z" />
				</g>
			</g>
			<g>
				<g>
					<path d="M176.486,136.725c0,1.063-0.538,1.924-1.202,1.924c-0.664,0-1.203-0.861-1.203-1.924c0-1.063,0.538-1.924,1.203-1.924       C175.948,134.801,176.486,135.662,176.486,136.725z" />
				</g>
			</g>
			<g>
				<g>
					<path style="fill:#638D29;" d="M173.712,142.521c-1.781,2.639-5.337,3.038-8.241,3.208c-2.984,0.124-5.971,0.088-8.937-0.308       c-0.244-0.034-0.216-0.415,0.041-0.397c0.733,0.056,1.476,0.085,2.216,0.104c2.215,0.067,4.435,0.054,6.647-0.063       c2.738-0.147,6.09-0.439,7.918-2.724C173.471,142.098,173.848,142.279,173.712,142.521L173.712,142.521z" />
				</g>
			</g>
			<g>
				<g>
					<path style="fill:#638D29;" d="M160.234,140.226c-0.281,0.404-0.666,0.623-0.858,0.488c-0.192-0.134-0.12-0.57,0.161-0.974       c0.281-0.404,0.666-0.623,0.858-0.489C160.588,139.387,160.516,139.822,160.234,140.226z" />
				</g>
			</g>
			<g>
				<g>
					<path style="fill:#638D29;" d="M211.979,146.762c-0.161,0.922-1.782,1.41-3.622,1.09c-1.839-0.321-3.2-1.328-3.04-2.251       c0.161-0.922,1.782-1.41,3.622-1.09C210.779,144.832,212.14,145.84,211.979,146.762z" />
				</g>
			</g>
			<g>
				<g>
					<path style="fill:#638D29;" d="M219.369,146.689c-0.255,0.726-1.536,0.936-2.862,0.471c-1.326-0.466-2.194-1.431-1.939-2.157       c0.255-0.726,1.536-0.936,2.862-0.471C218.756,144.998,219.624,145.964,219.369,146.689z" />
				</g>
			</g>
			<g>
				<g>
					<path style="fill:#638D29;" d="M203.064,143.922c0,0.769-1.139,1.393-2.544,1.393c-1.405,0-2.544-0.623-2.544-1.393       c0-0.769,1.139-1.393,2.544-1.393C201.925,142.529,203.064,143.153,203.064,143.922z" />
				</g>
			</g>
			<g>
				<g>
					<path style="fill:#638D29;" d="M216.826,151.344c-0.111,0.761-1.6,1.249-2.991,1.047c-1.39-0.203-2.155-1.02-2.044-1.782       c0.111-0.761,1.163-1.307,2.553-1.105C215.735,149.708,216.937,150.583,216.826,151.344z" />
				</g>
			</g>
			<g>
				<g>
					<path style="fill:#638D29;" d="M223.786,151.108c-0.086,0.591-1.136,1.044-2.217,0.887s-1.781-0.866-1.695-1.458       c0.086-0.591,0.898-1.115,1.978-0.957S223.872,150.517,223.786,151.108z" />
				</g>
			</g>
			<g>
				<g>
					<path style="fill:#638D29;" d="M206.979,150.26c-0.086,0.591-1.136,1.044-2.217,0.886c-1.08-0.158-1.781-0.866-1.695-1.458       c0.086-0.591,0.898-1.115,1.978-0.957C206.125,148.889,207.065,149.668,206.979,150.26z" />
				</g>
			</g>
			<g>
				<g>
					<path style="fill:#638D29;" d="M210.391,141.817c0.017,0.447-0.98,0.89-2.072,0.881c-1.092-0.008-1.885-0.463-1.881-0.911       c0.003-0.447,0.734-0.918,1.826-0.91C209.355,140.886,210.365,141.13,210.391,141.817z" />
				</g>
			</g>
			<g>
				<g>
					<path style="fill:#638D29;" d="M200.431,148.155c0.017,0.447-0.98,0.889-2.072,0.881c-1.092-0.008-1.885-0.463-1.881-0.911       c0.003-0.447,0.734-0.918,1.826-0.91C199.396,147.224,200.405,147.468,200.431,148.155z" />
				</g>
			</g>
			<g>
				<g>
					<path style="fill:#BDC37A;" d="M244.112,159.454c-4.238,4.859-10.466,9.478-19.438,10.573       c-16.322,1.99-27.914,2.93-38.283-6.29c-1.427-1.268-2.833-2.726-4.22-4.402c-0.044-0.058-0.093-0.12-0.133-0.177       c-3.524-4.588-4.96-11.596-4.96-11.596l2.992-0.904c0,0,4.256,16.043,24.164,18.108       C218.437,166.236,234.068,166.959,244.112,159.454z" />
				</g>
			</g>
			<g>
				<g>
					<path style="fill:#7FAB3C;" d="M211.93,156.899c0,0-5.376,6.621-2.547,12.223c1.415,2.603,4.537,4.225,6.97,5.669       c0.736,0.368,0.481,1.33-0.509,2.009c-0.99,0.679-3.961,2.688-4.301,4.895c-0.308,2.001,5.571,1.746,9.877,1.259       c0.832-0.094,1.585-0.528,2.072-1.209c1.222-1.705,3.372-5.141,2.963-7.718c-0.566-3.565-2.066-5.433-2.066-5.433       s2.433-3.197,2.348-6.819L211.93,156.899z" />
				</g>
			</g>
			<g>
				<g>
					<path style="fill:#638D29;" d="M225.099,170.049c-0.249-0.461-0.538-0.93-0.855-1.337c-0.055-0.069-0.053-0.164-0.003-0.231       c1.324-1.982,2.283-4.297,2.365-6.702c-0.005-0.168,0.263-0.178,0.266-0.006c0.125,2.498-0.867,4.946-2.332,6.936l-0.003-0.231       c0.335,0.46,0.572,0.945,0.802,1.455c0.03,0.067-0.001,0.146-0.068,0.176C225.206,170.136,225.131,170.109,225.099,170.049       L225.099,170.049z" />
				</g>
			</g>
			<g>
				<g>
					<path style="fill:#638D29;" d="M212.033,156.983c-2.879,3.917-5.078,10.151-1.011,14.026c0.122,0.114-0.063,0.311-0.185,0.191       c-3.272-2.757-2.917-7.554-1.121-11.049c0.578-1.188,1.276-2.307,2.111-3.336C211.933,156.684,212.144,156.848,212.033,156.983       L212.033,156.983z" />
				</g>
			</g>
			<g>
				<g>
					<path style="fill:#638D29;" d="M219.983,180.225c-2.025-0.509-2.793,1.229-3.044,2.916c-0.012,0.077-0.086,0.13-0.162,0.112       c-0.063-0.015-0.105-0.072-0.103-0.135c0.013-1.33,0.521-3.024,2.023-3.301c0.476-0.088,0.948-0.025,1.384,0.162       c0.067,0.029,0.099,0.107,0.07,0.174C220.123,180.218,220.049,180.247,219.983,180.225L219.983,180.225z" />
				</g>
			</g>
			<g>
				<g>
					<path style="fill:#638D29;" d="M215.627,179.914c-2.041-0.542-3.226,0.551-3.555,2.523c-0.014,0.077-0.09,0.13-0.167,0.108       c-0.063-0.017-0.103-0.076-0.098-0.139c0.019-0.231,0.051-0.462,0.077-0.695c0.192-1.199,1.153-2.337,2.443-2.314       c0.486-0.008,0.953,0.076,1.396,0.268c0.067,0.029,0.098,0.107,0.069,0.175C215.764,179.906,215.691,179.935,215.627,179.914       L215.627,179.914z" />
				</g>
			</g>
			<g>
				<g>
					<path style="fill:#638D29;" d="M207.798,180.275c-0.488,0.678-1.241,1.113-2.07,1.206c-4.309,0.488-10.187,0.745-9.881-1.259       c0.341-2.203,3.311-4.216,4.304-4.894c0.989-0.678,1.246-1.64,0.51-2.008c-2.004-1.188-4.477-2.5-6.073-4.38       c4.823,2.004,10.04,2.549,15.927,2.372c0.093,0.39,0.173,0.807,0.244,1.246C211.172,175.133,209.022,178.569,207.798,180.275z" />
				</g>
			</g>
			<g>
				<g>
					<path style="fill:#4E7218;" d="M202.619,178.782c-2.025-0.509-2.793,1.229-3.044,2.916c-0.012,0.077-0.086,0.13-0.162,0.112       c-0.063-0.015-0.106-0.072-0.103-0.135c0.013-1.33,0.521-3.023,2.023-3.301c0.476-0.088,0.948-0.025,1.384,0.161       c0.067,0.029,0.099,0.107,0.07,0.174C202.759,178.775,202.685,178.804,202.619,178.782L202.619,178.782z" />
				</g>
			</g>
			<g>
				<g>
					<path style="fill:#4E7218;" d="M198.543,178.464c-0.995-0.187-1.726,0.636-1.944,1.532c-0.094,0.314-0.152,0.641-0.223,0.972       c-0.028,0.153-0.268,0.127-0.264-0.028c-0.095-1.425,0.814-3.319,2.513-2.729C198.781,178.268,198.701,178.508,198.543,178.464       L198.543,178.464z" />
				</g>
			</g>
			<g>
				<g>
					<path style="fill:#7FAB3C;" d="M199.273,159.125c0,0,2.546,7.904-5.121,9.715c-1.981,0.396-3.594,1.056-4.329,2.584       c-0.736,1.528-1.207,2.207-2.245,1.943c-1.038-0.264-1.075-2.264-1.075-2.264s-0.943,1.735-1.924,1.49       c-0.981-0.245-0.698-2.962,0.038-4.546c0.736-1.585,2.509-3.226,4.301-4.056c1.792-0.83,3.414-1.585,2.094-5.225       C189.69,155.126,199.273,159.125,199.273,159.125z" />
				</g>
			</g>
			<g>
				<g>
					<path style="fill:#638D29;" d="M188.861,163.871c2.585-1.188,2.792-2.465,2.025-5.059c-0.053-0.156,0.191-0.246,0.25-0.091       c1.129,2.58,0.649,4.481-2.163,5.391C188.823,164.173,188.717,163.946,188.861,163.871L188.861,163.871z" />
				</g>
			</g>
			<g>
				<g>
					<path style="fill:#638D29;" d="M199.399,159.085c1.435,4.483-0.284,8.986-5.217,9.885c-0.162,0.034-0.224-0.216-0.061-0.259       c4.684-1.151,6.116-5.159,5.025-9.544C199.091,159.005,199.349,158.918,199.399,159.085L199.399,159.085z" />
				</g>
			</g>
			<g>
				<g>
					<path style="fill:#638D29;" d="M186.371,171.086c0.029-0.876,0.299-1.88,1.068-2.393c0.13-0.08,0.271,0.104,0.164,0.209       c-0.514,0.624-0.709,1.456-0.969,2.219C186.596,171.268,186.367,171.236,186.371,171.086L186.371,171.086z" />
				</g>
			</g>
			<g>
				<g>
					<path style="fill:#638D29;" d="M186.392,163.736c-2.199,0.607-4.167,1.627-4.699,2.265c-0.585,0.696-1.565,2.735-2.549,2.642       c-0.98-0.098-1.148-1.698-1.148-1.698s-0.738,1.379-1.414,1.339c-0.964-0.057-2.132-2.491-0.284-5.284       c1.472-2.221,4.548-3.436,5.741-3.843c0.04,0.058,0.089,0.12,0.133,0.177C183.559,161.01,184.964,162.468,186.392,163.736z" />
				</g>
			</g>
			<g>
				<g>
					<path style="fill:#4E7218;" d="M177.863,166.943c-0.088-0.678,0.085-1.423,0.592-1.91c0.103-0.096,0.273,0.029,0.215,0.154       c-0.262,0.569-0.388,1.163-0.544,1.77C178.092,167.094,177.881,167.081,177.863,166.943L177.863,166.943z" />
				</g>
			</g>
			<g>
				<g>
					<path style="fill:#EF7329;" d="M221.542,132.415c-0.898,2.24-1.931,4.421-3.006,6.58c-0.364,0.717-0.731,1.432-1.125,2.135       c-0.054,0.096-0.176,0.131-0.272,0.076c-0.088-0.049-0.124-0.156-0.088-0.247c0.591-1.498,1.27-2.955,1.945-4.414       c0.702-1.447,1.4-2.895,2.186-4.3C221.295,132.032,221.637,132.191,221.542,132.415L221.542,132.415z" />
				</g>
			</g>
			<g>
				<g>
					<path style="fill:#EF7329;" d="M216.52,124.678c-0.924,4.875-2.129,10.199-3.395,14.996c-0.064,0.237-0.434,0.162-0.389-0.088       c0.64-3.492,1.621-7.798,2.447-11.27c0.304-1.245,0.612-2.489,0.948-3.727C216.195,124.353,216.565,124.428,216.52,124.678       L216.52,124.678z" />
				</g>
			</g>
			<g>
				<g>
					<path style="fill:#EF7329;" d="M208.998,122.438c-0.136,5.412-0.477,11.358-0.962,16.751c-0.022,0.245-0.404,0.233-0.398-0.023       c0.078-3.872,0.356-8.684,0.62-12.569c0.098-1.395,0.213-2.789,0.342-4.182C208.622,122.17,209.004,122.182,208.998,122.438       L208.998,122.438z" />
				</g>
			</g>
			<g>
				<g>
					<path style="fill:#EF7329;" d="M202.49,125.354c0.521,4.475,0.903,9.419,1.075,13.921c0.008,0.245-0.367,0.281-0.398,0.031       c-0.394-3.199-0.697-7.199-0.908-10.433c-0.068-1.162-0.132-2.324-0.167-3.488C202.084,125.14,202.459,125.104,202.49,125.354       L202.49,125.354z" />
				</g>
			</g>
			<g>
				<g>
					<path style="fill:#EF7329;" d="M197.165,132.17c0.814,2.614,1.458,5.281,1.924,7.979c0.043,0.235-0.319,0.323-0.388,0.094       c-0.815-2.614-1.458-5.281-1.924-7.979C196.735,132.029,197.097,131.94,197.165,132.17L197.165,132.17z" />
				</g>
			</g>
			<g>
				<g>
					<path style="fill:#FA965B;" d="M175.942,139.754c0-0.926,1.08-1.677,2.413-1.677c1.333,0,2.413,0.751,2.413,1.677       s-1.08,1.677-2.413,1.677C177.023,141.43,175.942,140.68,175.942,139.754z" />
				</g>
			</g>
		</g>
	
</svg>
