<?xml version="1.0" encoding="utf-8"?>
<svg version="1.1" xmlns="http://www.w3.org/2000/svg" xmlns:xlink="http://www.w3.org/1999/xlink"
     viewBox="32 114 111 69" width="200" height="200" xml:space="preserve">
<g xmlns="http://www.w3.org/2000/svg">
			<g>
				<g>
					<path style="fill:#378B6A;" d="M122.041,155.178c-24.516,7.448-44.339,4.355-48.523,3.092       c-2.772-0.835-5.156-1.183-6.453-1.326c0.343-0.537,0.634-1.132,0.846-1.789c0.12-0.366,0.217-0.755,0.291-1.16       c0.589-3.384,0.212-6.585-1.018-9.191c-0.754-1.595-1.829-2.978-3.207-4.035c3.201-3.487,11.54-10.563,26.756-10.935       c21.166-0.509,23.938,13.553,31.912,13.067c7.979-0.492,7.396-9.146,7.396-9.146s-2.727,0.194-5.35-2.486       c-2.629-2.675-2.435-6.356-0.732-7.928c1.863-1.72,5.545-2.138,8.517,1.218c2.967,3.355,1.48,7.905,1.48,7.905       c0.28,0.857,0.486,1.709,0.629,2.555C136.159,144.443,129.403,152.903,122.041,155.178z" />
				</g>
			</g>
			<g>
				<g>
					<path style="fill:#57AB89;" d="M125.253,156.795c-5.819,3.984-13.09,6.87-21.035,8.357c-3.075,0.577-6.253,0.949-9.488,1.086       c-5.573,0.24-11.323-0.2-17.005-1.4c-3.115-0.657-6.219-1.549-9.26-2.687c-1.669-0.617-3.315-1.315-4.944-2.086       c0.303-0.16,0.6-0.331,0.886-0.52c0.132-0.086,0.263-0.171,0.389-0.263c0.149-0.109,0.297-0.217,0.44-0.337       c0.28-0.223,0.549-0.463,0.8-0.72c0.383-0.383,0.726-0.812,1.029-1.28c1.298,0.143,3.681,0.492,6.453,1.326       c4.184,1.263,24.007,4.355,48.523-3.092c7.362-2.275,14.118-10.735,12.547-20.16       C135.828,138.807,137.388,148.496,125.253,156.795z" />
				</g>
			</g>
			<g>
				<g>
					<path style="fill:#57AB89;" d="M87.282,173.566c0,0-0.589,1.904-4.664,2.264c-0.886,0.074-1.938,0.08-3.19-0.023       c-0.12-0.011-0.24-0.023-0.354-0.04c-0.286-0.029-0.549-0.057-0.789-0.092c-2.441-0.377-2.881-1.075-2.612-2.275       c0.074-0.326,0.2-0.692,0.354-1.103c0.023-0.063,0.046-0.126,0.069-0.189c0.703-1.84,1.252-4.601,0.594-7.499       c-0.137-0.623-0.331-1.258-0.594-1.886c0,0-1.166-2.595,0.24-2.858c1.412-0.269,11.169,0.96,11.169,0.96       S89.277,167.781,87.282,173.566z" />
				</g>
			</g>
			<g>
				<g>
					<path style="fill:#368C69;" d="M87.647,160.789c0.549,1.772,0.771,3.633,0.713,5.482c-0.005,0.175-0.276,0.185-0.294,0.01       c-0.205-1.814-0.421-3.619-0.704-5.42C87.328,160.688,87.596,160.619,87.647,160.789L87.647,160.789z" />
				</g>
			</g>
			<g>
				<g>
					<path style="fill:#368C69;" d="M76.547,164.641c-0.27-0.607-0.458-1.209-0.587-1.861c-0.013-0.082,0.043-0.16,0.125-0.173       C76.47,162.499,77.257,165.221,76.547,164.641L76.547,164.641z" />
				</g>
			</g>
			<g>
				<g>
					<path style="fill:#378B6A;" d="M78.285,175.675c-2.441-0.377-2.881-1.075-2.612-2.275c0.389-0.514,0.932-1.023,1.532-0.937       C78.251,172.611,78.451,173.915,78.285,175.675z" />
				</g>
			</g>
			<g>
				<g>
					<path style="fill:#378B6A;" d="M82.618,175.829c-0.886,0.074-1.938,0.08-3.19-0.023c-0.12-0.011-0.24-0.023-0.354-0.04       c0.177-1.052,0.646-2.932,1.726-2.921C81.961,172.857,82.458,174.458,82.618,175.829z" />
				</g>
			</g>
			<g>
				<g>
					<g>
						<path style="fill:#378B6A;" d="M104.847,171.417c-1.606,1.503-4.178,2.252-6.488,2.458c-1.109,0.103-2.161,0.074-3.007-0.051        c-0.269-0.034-0.509-0.086-0.732-0.143c-0.543-0.137-0.949-0.326-1.16-0.56c-0.577-0.64-0.686-1.349-0.537-2.052        c0.143-0.709,0.549-1.412,0.977-2.035c0.572-0.835,0.766-2.075,0.829-2.795c3.235-0.137,6.413-0.509,9.488-1.086l0.434,1.475        C104.653,166.627,105.207,171.051,104.847,171.417z" />
					</g>
				</g>
				<g>
					<g>
						<path style="fill:#207556;" d="M94.621,173.68c-0.543-0.137-0.949-0.326-1.16-0.56c-0.577-0.64-0.686-1.349-0.537-2.052        c0.24-0.337,0.549-0.583,0.943-0.537C94.621,170.617,94.667,172.503,94.621,173.68z" />
					</g>
				</g>
				<g>
					<g>
						<path style="fill:#207556;" d="M98.36,173.875c-1.109,0.103-2.161,0.074-3.007-0.051c0.143-1.069,0.532-2.995,1.4-2.984        C97.777,170.857,98.222,172.16,98.36,173.875z" />
					</g>
				</g>
			</g>
			<g>
				<g>
					<g>
						<path style="fill:#378B6A;" d="M76.096,172.108c-0.023,0.063-0.046,0.126-0.069,0.189c-1.326,0.577-2.824,0.903-4.23,1.029        c-1.109,0.103-2.161,0.074-3.007-0.051c-0.269-0.034-0.509-0.086-0.732-0.143c-0.543-0.137-0.949-0.326-1.16-0.56        c-0.577-0.64-0.686-1.349-0.537-2.052c0.143-0.709,0.549-1.412,0.978-2.035c0.572-0.835,0.766-2.075,0.829-2.795        c0,0,0.257-1.966,0.297-3.538c2.704,1.012,5.459,1.829,8.225,2.458C77.348,167.507,76.799,170.268,76.096,172.108z" />
					</g>
				</g>
				<g>
					<g>
						<path style="fill:#207556;" d="M68.06,173.133c-0.543-0.137-0.949-0.326-1.16-0.56c-0.577-0.64-0.686-1.349-0.537-2.052        c0.24-0.337,0.549-0.583,0.943-0.537C68.06,170.069,68.106,171.956,68.06,173.133z" />
					</g>
				</g>
				<g>
					<g>
						<path style="fill:#207556;" d="M71.799,173.327c-1.109,0.103-2.161,0.074-3.007-0.051c0.143-1.069,0.532-2.995,1.401-2.984        C71.216,170.309,71.662,171.613,71.799,173.327z" />
					</g>
				</g>
			</g>
			<g>
				<g>
					<path style="fill:#F1CC9D;" d="M67.074,132.767c0.035-0.324,0.343-0.541,0.659-0.46c1.197,0.306,4.026,1.183,5.571,2.935       c0.657,0.754,0,2.554-1.143,3.551c-1.143,0.997-2.773,1.727-3.916,0.316C67.234,137.861,66.888,134.503,67.074,132.767z" />
				</g>
			</g>
			<g>
				<g>
					<path style="fill:#F1CC9D;" d="M75.547,125.567c0.148-0.344,0.576-0.474,0.912-0.275c1.275,0.756,4.239,2.709,5.431,5.176       c0.504,1.059-0.854,2.807-2.503,3.503c-1.649,0.696-3.769,0.928-4.613-1.023C74.027,131.222,74.752,127.41,75.547,125.567z" />
				</g>
			</g>
			<g>
				<g>
					<path style="fill:#F1CC9D;" d="M87.616,122.371c0.266-0.277,0.728-0.245,0.985,0.07c0.972,1.198,3.161,4.171,3.445,6.987       c0.114,1.206-1.828,2.391-3.679,2.455c-1.852,0.064-3.996-0.493-4.125-2.684C84.129,127.262,86.189,123.855,87.616,122.371z" />
				</g>
			</g>
			<g>
				<g>
					<path style="fill:#F1CC9D;" d="M100.024,123.145c0.327-0.201,0.767-0.054,0.935,0.316c0.64,1.403,2.011,4.832,1.577,7.629       c-0.193,1.196-2.37,1.854-4.178,1.45c-1.808-0.404-3.743-1.482-3.317-3.635C95.419,127.001,98.269,124.222,100.024,123.145z" />
				</g>
			</g>
			<g>
				<g>
					<path style="fill:#F1CC9D;" d="M110.372,128.12c0.338-0.102,0.694,0.132,0.756,0.5c0.238,1.397,0.65,4.764-0.393,7.145       c-0.452,1.016-2.541,1.09-4.052,0.306c-1.511-0.784-2.976-2.196-2.091-4.008C105.376,130.462,108.56,128.664,110.372,128.12z" />
				</g>
			</g>
			<g>
				<g>
					<path style="fill:#F1CC9D;" d="M117.67,135.386c0.275-0.026,0.512,0.209,0.503,0.501c-0.033,1.109-0.239,3.758-1.409,5.425       c-0.505,0.71-2.119,0.443-3.158-0.393c-1.038-0.836-1.944-2.148-0.984-3.401C113.472,136.41,116.195,135.523,117.67,135.386z" />
				</g>
			</g>
			<g>
				<g>
					<path style="fill:#F1CC9D;" d="M80.958,142.319c0.149,0.843-0.638,1.688-1.759,1.886c-1.121,0.199-2.151-0.324-2.3-1.167       c-0.149-0.843,0.638-1.688,1.759-1.886C79.779,140.953,80.809,141.476,80.958,142.319z" />
				</g>
			</g>
			<g>
				<g>
					<path style="fill:#F1CC9D;" d="M89.076,145.142c-0.167,0.754-1.008,1.208-1.878,1.015c-0.87-0.193-1.439-0.961-1.272-1.714       c0.167-0.754,1.008-1.208,1.878-1.015C88.674,143.62,89.244,144.388,89.076,145.142z" />
				</g>
			</g>
			<g>
				<g>
					<path style="fill:#F1CC9D;" d="M105.014,146.285c-0.156,0.704-0.942,1.128-1.754,0.948c-0.812-0.18-1.344-0.897-1.188-1.601       c0.156-0.704,0.942-1.128,1.754-0.948C104.639,144.865,105.171,145.581,105.014,146.285z" />
				</g>
			</g>
			<g>
				<g>
					<path style="fill:#F1CC9D;" d="M112.424,144.592c-0.149,0.671-0.897,1.075-1.671,0.903c-0.774-0.172-1.281-0.855-1.132-1.525       c0.149-0.671,0.897-1.075,1.671-0.903C112.066,143.238,112.573,143.921,112.424,144.592z" />
				</g>
			</g>
			<g>
				<g>
					<path style="fill:#F1CC9D;" d="M96.865,143.114c-0.195,0.88-1.158,1.415-2.149,1.195c-0.992-0.22-1.637-1.112-1.442-1.992       c0.195-0.88,1.158-1.415,2.149-1.195C96.415,141.342,97.061,142.234,96.865,143.114z" />
				</g>
			</g>
			<g>
				<g>
					<path style="fill:#F1CC9D;" d="M107.016,140.799c0,1.028-1.111,1.861-2.481,1.861s-2.286-0.852-2.481-1.861       c-0.219-1.131,0.746-2.08,2.116-2.08C105.54,138.72,107.016,139.772,107.016,140.799z" />
				</g>
			</g>
			<g>
				<g>
					<path style="fill:#F1CC9D;" d="M97.868,137.489c-0.31,0.7-1.49,0.986-2.504,0.537c-1.013-0.449-1.684-1.635-1.374-2.335       c0.31-0.7,1.893-0.741,2.907-0.292C97.91,135.848,98.179,136.789,97.868,137.489z" />
				</g>
			</g>
			<g>
				<g>
					<path style="fill:#F1CC9D;" d="M89.017,137.186c0.116,0.879-0.493,1.715-1.971,1.911c-1.478,0.196-3.266-0.324-3.382-1.203       c-0.116-0.879,1.369-1.861,2.847-2.057C87.989,135.642,88.901,136.307,89.017,137.186z" />
				</g>
			</g>
			<g>
				<g>
					<g>
						<path style="fill:#57AB89;" d="M68.202,153.995c-0.051,0.286-0.114,0.566-0.189,0.829c-0.029,0.114-0.063,0.223-0.103,0.332        c-0.006,0.017-0.012,0.034-0.017,0.051c-0.04,0.12-0.08,0.234-0.126,0.349c-0.011,0.029-0.017,0.057-0.029,0.08        c-0.074,0.183-0.154,0.366-0.24,0.537c-0.051,0.109-0.109,0.217-0.166,0.32c-0.023,0.046-0.051,0.086-0.074,0.132        c-0.063,0.109-0.126,0.217-0.194,0.32c-0.303,0.469-0.646,0.897-1.029,1.28c-0.252,0.257-0.52,0.497-0.8,0.72        c-0.143,0.12-0.292,0.229-0.44,0.337c-0.126,0.092-0.257,0.177-0.389,0.263c-0.286,0.189-0.583,0.36-0.886,0.52        c-0.006,0-0.006,0-0.006,0c-0.017,0.011-0.04,0.023-0.063,0.034c-0.623,0.326-1.269,0.594-1.909,0.817        c-0.143,0.051-0.292,0.103-0.434,0.149c-0.463,0.143-0.915,0.269-1.355,0.372c-0.063,0.017-0.126,0.029-0.189,0.046        c-0.063,0.011-0.12,0.023-0.177,0.04c-0.126,0.029-0.251,0.051-0.371,0.074c-0.6,0.12-1.155,0.2-1.629,0.257        c-0.069,0.011-0.131,0.017-0.194,0.023c-0.257,0.029-0.492,0.051-0.692,0.063c-0.051,0.006-0.097,0.011-0.143,0.011        c-0.469,0.034-0.743,0.034-0.743,0.034s0-0.234-0.034-0.674c-0.011-0.103-0.029-0.217-0.04-0.343        c-0.029-0.194-0.057-0.411-0.103-0.652c-0.029-0.154-0.063-0.314-0.103-0.486c-0.097-0.452-0.263-1.018-0.526-1.641        c-0.08-0.189-0.166-0.377-0.263-0.566c-0.143-0.286-0.303-0.566-0.492-0.835c-0.12-0.183-0.257-0.36-0.4-0.537        c-0.349-0.417-0.777-0.829-1.292-1.172c1.046-2.584,5.144-10.792,14.821-10.277C68.414,147.41,68.791,150.611,68.202,153.995z        " />
					</g>
				</g>
				<g>
					<g>
						<path style="fill:#378B6A;" d="M55.616,161.987c-5.693,0.755-7.785-1.635-7.785-1.635c-0.664,0.651-1.568,0.939-1.994,1.045        c-0.151,0.038-0.313,0.016-0.449-0.059c-3.291-1.803-3.318-4.636-3.318-4.731c0.554-1.749,4.07-3.27,7.888-2.515        C55.65,155.214,55.616,161.987,55.616,161.987z" />
					</g>
				</g>
				<g>
					<g>
						<path style="fill:#378B6A;" d="M67.185,144.803c-9.677-0.514-13.775,7.694-14.821,10.277c-0.657-0.452-1.452-0.8-2.406-0.989        c-1.806-0.354-3.544-0.206-4.933,0.24c1.4-2.138,4.401-7.494,3.727-13.17c2.269-1.766,5.287-3.018,9.014-2.709        c2.475,0.206,4.561,1.029,6.213,2.315C65.356,141.825,66.43,143.209,67.185,144.803z" />
					</g>
				</g>
				<g>
					<g>
						<path style="fill:#207556;" d="M47.722,160.253c0.909-0.934,2.286-0.69,3.408-0.558c1.118,0.149,2.231,0.227,3.288-0.103        c0.168-0.058,0.271,0.202,0.107,0.274c-1.072,0.508-2.313,0.449-3.453,0.315c-1.058-0.136-2.242-0.403-3.133,0.271        C47.805,160.591,47.588,160.396,47.722,160.253L47.722,160.253z" />
					</g>
				</g>
				<g>
					<g>
						<path style="fill:#57AB89;" d="M45.024,154.333c-1.549,0.492-2.664,1.355-2.955,2.275c-1.172-3.561-0.091-6.282,0.869-7.802        c0.372-0.589,0.72-0.995,0.92-1.206c0.114-0.126,0.2-0.269,0.263-0.429c0.143-0.371,0.332-0.777,0.56-1.206        c0.137-0.257,0.292-0.526,0.457-0.794c0.749-1.2,1.789-2.486,3.121-3.612c0.16-0.132,0.326-0.263,0.491-0.394        C49.425,146.84,46.425,152.196,45.024,154.333z" />
					</g>
				</g>
				<g>
					<g>
						<path style="fill:#F1CC9D;" d="M72.058,142.211c-0.858,0.63-2.865,1.751-6.51,2.004c-0.339,0.023-0.623,0.266-0.683,0.601        c-0.175,0.97-0.277,2.818,1.186,3.788c0.735,0.488,1.957,0.513,2.749,0.123c2.272-1.118,3.558-4.185,3.748-6.235        C72.573,142.224,72.275,142.052,72.058,142.211z" />
					</g>
				</g>
				<g>
					<g>
						<path style="fill:#F1CC9D;" d="M71.454,149.229c-0.603,0.313-1.895,0.803-4.015,0.749c-0.86-0.022-1.589,0.67-1.593,1.53        c-0.002,0.547,0.149,1.132,0.648,1.588c0.459,0.419,1.351,0.575,1.944,0.387c1.73-0.547,2.974-2.577,3.332-4.006        C71.816,149.295,71.621,149.143,71.454,149.229z" />
					</g>
				</g>
				<g>
					<g>
						<path style="fill:#F1CC9D;" d="M48.259,141.558c-1.332,1.126-2.372,2.412-3.121,3.612c-0.697-0.177-1.389-0.652-1.755-1.206        c-1.395-2.109-0.96-5.407-0.091-7.276c0.114-0.24,0.457-0.24,0.566,0.006C44.27,137.648,45.396,139.558,48.259,141.558z" />
					</g>
				</g>
				<g>
					<g>
						<path style="fill:#F1CC9D;" d="M44.681,145.965c-0.229,0.429-0.417,0.835-0.56,1.206c-0.063,0.16-0.149,0.303-0.263,0.429        c-0.2,0.211-0.549,0.617-0.92,1.206c-0.492-0.074-1-0.326-1.298-0.652c-1.217-1.343-1.269-3.721-0.857-5.139        c0.052-0.177,0.297-0.211,0.394-0.051c0.366,0.572,1.235,1.646,3.092,2.669C44.43,145.725,44.567,145.834,44.681,145.965z" />
					</g>
				</g>
			</g>
			<g>
				<g>
					<ellipse cx="45.673" cy="148.99" rx="1.174" ry="1.873" />
				</g>
			</g>
			<g>
				<g>
					<ellipse cx="58.71" cy="151.52" rx="1.174" ry="1.873" />
				</g>
			</g>
			<g>
				<g>
					<path style="fill:#57AB89;" d="M114.524,174.252c-1.206,0.606-2.441,1.006-3.624,1.246c-1.217,0.246-2.378,0.32-3.401,0.269       c-0.36-0.017-0.709-0.051-1.029-0.103c-1.486-0.212-2.532-0.72-2.795-1.315c-0.091-0.206-0.137-0.429-0.149-0.652       c-0.074-1.349,1.097-2.881,1.623-3.51c0.606-0.732,0.486-1.823-0.56-2.675c-5.67-3.773-4.024-7.454-4.024-7.454       s4.693-0.486,6.71-0.852c2.018-0.366,8.248-0.949,8.248-0.949c-1.075,3.207-1.703,5.493-0.389,8.9       C116.445,170.565,115.765,173.64,114.524,174.252z" />
				</g>
			</g>
			<g>
				<g>
					<path style="fill:#368C69;" d="M115.664,158.305c-0.309,1.347-0.735,2.637-1.044,3.981c-0.02,0.079-0.1,0.128-0.179,0.108       c-0.068-0.017-0.113-0.078-0.112-0.145c0.048-1.405,0.493-2.765,1.057-4.037C115.454,158.056,115.703,158.14,115.664,158.305       L115.664,158.305z" />
				</g>
			</g>
			<g>
				<g>
					<path style="fill:#368C69;" d="M104.509,167.635c-2.542-1.509-5.264-4.466-4.077-7.636c0.08-0.177,0.346-0.061,0.268,0.12       c-0.815,3.029,1.731,5.617,3.971,7.271C104.828,167.493,104.666,167.742,104.509,167.635L104.509,167.635z" />
				</g>
			</g>
			<g>
				<g>
					<path style="fill:#378B6A;" d="M106.47,175.664c-1.486-0.212-2.532-0.72-2.795-1.315c-0.091-0.206-0.137-0.429-0.149-0.652       c0.36-0.703,0.903-1.469,1.572-1.452C106.173,172.263,106.608,173.989,106.47,175.664z" />
				</g>
			</g>
			<g>
				<g>
					<path style="fill:#378B6A;" d="M110.9,175.498c-1.217,0.246-2.378,0.32-3.401,0.269c0.092-1.178,0.4-3.195,1.469-3.281       C110.214,172.389,110.712,174.018,110.9,175.498z" />
				</g>
			</g>
		</g>
		
</svg>
