<?xml version="1.0" encoding="utf-8"?>
<svg version="1.1" xmlns="http://www.w3.org/2000/svg" xmlns:xlink="http://www.w3.org/1999/xlink"
     viewBox="175 26 117 82" width="200" height="200" xml:space="preserve">
<g xmlns="http://www.w3.org/2000/svg">
			<g>
				<g>
					<path style="fill:#F89B34;" d="M284.612,77.586c-0.714,2.385-4.931,12.118-25.639,8.14c0,0-2.206,0.68-5.815,1.428       c-2.18,0.459-4.875,0.935-7.902,1.301c-2.937,0.357-6.189,0.608-9.593,0.629c-5.632,0.038-11.68-0.553-17.41-2.333       c-2.818-0.871-5.555-2.032-8.127-3.545c-0.939-0.553-1.857-1.156-2.75-1.807c0,0-0.043,0.013-0.119,0.038       c-1.658,0.463-20.011,5.436-23.624-3.362c0,0-2.232-5.407,2.461-9.564c0.527-0.468,0.91-1.08,1.148-1.743       c0.859-2.372,3.473-7.889,9.559-9.415c6.439-1.611,10.958,1.109,12.352,2.121c0.255,0.183,0.604,0.123,0.782-0.132       c0.098-0.14,0.217-0.306,0.361-0.493c0.884-1.156,2.644-3.184,5.411-5.16c0.65-0.463,1.356-0.927,2.121-1.373       c2.261-1.326,5.02-2.521,8.327-3.281c1.139-0.259,2.346-0.472,3.617-0.612c2.899-0.336,6.146-0.332,9.763,0.157       c0.102,0.013,0.208,0.025,0.31,0.042c1.101,0.157,2.146,0.353,3.137,0.587c3.422,0.799,6.197,2.023,8.497,3.519       c0.99,0.642,1.891,1.335,2.716,2.07c2.083,1.84,3.694,3.923,5.062,6.057c0.676,1.058,1.292,2.13,1.874,3.188       c1.114,2.019,2.104,4,3.158,5.776c0.748,1.271,1.534,2.44,2.418,3.443c0.595,0.68,1.241,1.288,1.951,1.802       c1.08,0.782,2.134,1.398,3.158,1.887c0.918,0.438,1.815,0.769,2.674,1.012c1.636,0.459,3.154,0.599,4.493,0.557       c2.444-0.077,4.31-0.761,5.3-1.22C284.472,77.212,284.672,77.386,284.612,77.586z" />
				</g>
			</g>
			<g>
				<g>
					<g>
						<path style="fill:#E65826;" d="M215.708,53.69c-2.767,1.976-4.527,4.004-5.411,5.16l-2.865-2.984        c-0.714-0.74-1.165-1.687-1.292-2.707c-0.225-1.768-0.378-4.403,0.608-4.982c1.513-0.893,5.602,0.327,6.809,1.628        C214.433,50.748,215.296,52.691,215.708,53.69z" />
					</g>
				</g>
				<g>
					<g>
						<path style="fill:#E65826;" d="M226.156,49.035c-3.307,0.761-6.065,1.955-8.327,3.281c-0.816-0.82-2.924-3.035-3.303-4.259        c-0.331-1.738,0.102-8.633,2.406-9.632c2.304-0.995,7.511,3.426,8.093,4.438C225.497,43.688,225.99,47.603,226.156,49.035z" />
					</g>
				</g>
				<g>
					<g>
						<path style="fill:#E65826;" d="M240.964,42.596c-0.204,2.036-0.587,4.293-1.428,5.985c-3.617-0.489-6.865-0.493-9.763-0.157        c-1.063-1.666-1.73-3.388-2.083-5.22c-0.14-0.723-0.034-1.479,0.289-2.138c1.615-3.311,3.519-5.271,5.989-6.813        c0.212-0.136,0.485-0.128,0.689,0.017c1.751,1.211,4.531,3.94,5.9,6.333C240.9,41.206,241.036,41.903,240.964,42.596z" />
					</g>
				</g>
				<g>
					<g>
						<path style="fill:#E65826;" d="M255.909,47.076c0.004,0.238-0.051,0.472-0.162,0.68c-0.417,0.812-1.679,2.954-4.267,4.973        c-2.3-1.496-5.075-2.72-8.497-3.519c0.025-1.233,0.128-4.123,0.523-5.734c0.102-0.412,0.306-0.791,0.574-1.118        c1.003-1.207,3.991-4.327,8.327-4.527c0.234-0.013,0.463,0.094,0.616,0.272C253.758,38.974,255.828,41.878,255.909,47.076z" />
					</g>
				</g>
				<g>
					<g>
						<path style="fill:#E65826;" d="M264.665,57.434c-0.077,0.183-0.191,0.34-0.336,0.476c-0.57,0.553-2.253,2.002-5.071,2.946        c-1.369-2.134-2.98-4.216-5.062-6.057c0.417-1.186,1.25-3.362,2.142-4.727c0.293-0.45,0.718-0.799,1.207-1.016        c1.343-0.595,4.395-1.666,7.094-0.561c0.213,0.089,0.357,0.289,0.383,0.519C265.188,50.353,265.659,55.024,264.665,57.434z" />
					</g>
				</g>
				<g>
					<g>
						<path style="fill:#E65826;" d="M270.297,62.212c-0.013,0.901-0.132,3.06-0.884,4.659c-0.183,0.387-0.476,0.71-0.829,0.952        c-0.795,0.557-2.436,1.581-4.293,1.998c-1.054-1.777-2.044-3.757-3.158-5.776c0.332-0.591,1.029-1.607,2.27-2.457        c0.298-0.204,0.629-0.349,0.978-0.434c1.088-0.255,3.685-0.693,5.538,0.387C270.157,61.681,270.301,61.936,270.297,62.212z" />
					</g>
				</g>
				<g>
					<g>
						<path style="fill:#E65826;" d="M272.907,75.58c-0.344,0.638-0.718,1.075-1.088,1.373c-1.024-0.489-2.078-1.105-3.158-1.887        c-0.71-0.514-1.356-1.122-1.951-1.802c0.421-0.667,1.207-1.675,2.448-2.436c1.602-0.978,3.031-0.37,3.562-0.072        c0.145,0.085,0.264,0.204,0.34,0.353C273.357,71.703,274.042,73.476,272.907,75.58z" />
					</g>
				</g>
				<g>
					<g>
						<path style="fill:#E65826;" d="M278.985,78.521c-1.339,0.042-2.856-0.098-4.493-0.557c0.306-1.415,1.271-5.173,2.733-5.062        C279.121,73.046,279.104,76.74,278.985,78.521z" />
					</g>
				</g>
				<g>
					<g>
						<path style="fill:#EA7727;" d="M215.712,94.864c0.017,0.493-0.051,0.982-0.161,1.462c-0.034,0.145-0.072,0.289-0.115,0.429        c-1.33,0.918-3.043,1.186-4.82,1.054c-0.918-0.064-1.853-0.234-2.759-0.476c-0.013,0-0.025-0.004-0.038-0.008        c-0.459-0.123-0.85-0.234-1.19-0.34c-1.777-0.561-1.993-1.037-1.568-2.699c0.157-0.599,0.391-1.356,0.672-2.329        c0.961-3.345,1.39-8.573,1.526-10.52c0.076-0.025,0.119-0.038,0.119-0.038c2.593,1.892,5.407,3.358,8.339,4.476        C215.589,89.083,215.661,92.951,215.712,94.864z" />
					</g>
				</g>
				<g>
					<g>
						<path style="fill:#EA7727;" d="M245.448,96.36c-0.004,0.089-0.004,0.178-0.004,0.264c-0.982,0.71-2.142,1.029-3.332,1.135        c-1.097,0.093-2.219,0.004-3.247-0.136c-0.319-0.042-0.629-0.093-0.922-0.14l-0.076-0.013        c-2.329-0.387-2.627-1.288-2.431-2.606c0.047-0.331,0.123-0.684,0.208-1.067c0.298-1.347,0.14-3.553,0.021-4.714        c3.405-0.021,6.656-0.272,9.593-0.629c0.042,0.2,0.093,0.395,0.149,0.595C246.137,91.727,245.504,94.634,245.448,96.36z" />
					</g>
				</g>
				<g>
					<g>
						<path style="fill:#EA7727;" d="M230.182,63.368c0-1.555,2.022-2.816,4.516-2.816s4.516,1.261,4.516,2.816        c0,1.555-2.022,2.816-4.516,2.816S230.182,64.923,230.182,63.368z" />
					</g>
				</g>
				<g>
					<g>
						<path style="fill:#EA7727;" d="M220.634,62.287c-0.397-0.947,0.443-2.202,1.878-2.804c1.434-0.601,2.919-0.321,3.316,0.626        c0.397,0.947-0.443,2.202-1.878,2.804C222.516,63.515,221.031,63.234,220.634,62.287z" />
					</g>
				</g>
				<g>
					<g>
						<path style="fill:#EA7727;" d="M226.913,56.571c-0.303-1.375,0.892-2.808,2.669-3.199c1.777-0.391,3.463,0.407,3.765,1.783        c0.303,1.375-0.892,2.808-2.669,3.199C228.902,58.745,227.216,57.947,226.913,56.571z" />
					</g>
				</g>
				<g>
					<g>
						<path style="fill:#EA7727;" d="M236.083,54.585c0.434-1.463,2.519-2.134,4.657-1.5c2.138,0.635,3.519,2.335,3.085,3.798        c-0.434,1.463-2.519,2.134-4.657,1.5C237.03,57.748,235.649,56.048,236.083,54.585z" />
					</g>
				</g>
				<g>
					<g>
						<path style="fill:#EA7727;" d="M247.664,58.384c0.746-1.264,2.661-1.514,4.279-0.56c1.617,0.954,2.324,2.752,1.579,4.016        s-2.98,1.514-4.597,0.56C247.306,61.445,246.918,59.647,247.664,58.384z" />
					</g>
				</g>
				<g>
					<g>
						<path style="fill:#E7611A;" d="M237.942,97.482l-0.076-0.013c-2.329-0.387-2.627-1.288-2.431-2.606        c0.208-0.268,0.502-0.484,0.914-0.459C237.275,94.465,237.908,95.527,237.942,97.482z" />
					</g>
				</g>
				<g>
					<g>
						<path style="fill:#E7611A;" d="M242.112,97.759c-1.097,0.093-2.219,0.004-3.247-0.136c0.238-1.118,0.761-2.882,1.658-2.746        C241.432,95.013,241.921,96.518,242.112,97.759z" />
					</g>
				</g>
				<g>
					<g>
						<path style="fill:#E7611A;" d="M206.629,96.985c-1.777-0.561-1.993-1.037-1.568-2.699c0.323-0.387,0.718-0.659,1.152-0.553        C207.143,93.963,206.96,95.774,206.629,96.985z" />
					</g>
				</g>
				<g>
					<g>
						<path style="fill:#E7611A;" d="M210.616,97.81c-0.918-0.064-1.853-0.234-2.759-0.476c0.085-1.058,0.361-2.793,1.262-2.606        C210.11,94.932,210.527,96.335,210.616,97.81z" />
					</g>
				</g>
				<g>
					<g>
						<path style="fill:#CB481A;" d="M184.946,79.299c4.561,1.398,9.743,0.626,12.599-3.511c0.133-0.196,0.449,0.01,0.318,0.212        c-1.882,3.277-5.807,4.914-9.492,4.486c-1.221-0.116-2.417-0.37-3.563-0.83c-0.098-0.039-0.145-0.151-0.106-0.249        C184.741,79.31,184.85,79.264,184.946,79.299L184.946,79.299z" />
					</g>
				</g>
				<g>
					<g>
						<path d="M198.598,69.857c0-1.291,0.856-2.338,1.913-2.338c1.056,0,1.913,1.047,1.913,2.338s-0.856,2.338-1.913,2.338        C199.455,72.195,198.598,71.149,198.598,69.857z" />
					</g>
				</g>
				<g>
					<g>
						<path style="fill:#FE7F5E;" d="M203.033,73.507c0-1.174,1.118-2.125,2.497-2.125c1.379,0,2.497,0.951,2.497,2.125        s-1.118,2.125-2.497,2.125C204.151,75.633,203.033,74.681,203.033,73.507z" />
					</g>
				</g>
				<g>
					<g>
						<path style="fill:#CB481A;" d="M188.073,74.328c0.25-0.563,0.736-0.894,1.084-0.739c0.349,0.155,0.428,0.737,0.178,1.3        c-0.25,0.563-0.736,0.894-1.084,0.739C187.903,75.473,187.823,74.891,188.073,74.328z" />
					</g>
				</g>
				<g>
					<g>
						<path style="fill:#EA7727;" d="M241.924,64.242c0.202-0.857,1.408-1.305,2.693-1.002c1.285,0.304,2.163,1.244,1.96,2.101        c-0.202,0.857-1.408,1.305-2.693,1.002C242.599,66.039,241.721,65.099,241.924,64.242z" />
					</g>
				</g>
				<g>
					<g>
						<g>
							<path style="fill:#CB481A;" d="M219.607,51.121c-0.825-1.567-1.527-3.196-2.028-4.895c-0.019-0.068,0.02-0.138,0.088-0.158         c0.063-0.018,0.129,0.016,0.153,0.075c0.655,1.623,1.402,3.21,2.164,4.782C220.105,51.169,219.738,51.362,219.607,51.121         L219.607,51.121z" />
						</g>
					</g>
					<g>
						<g>
							<path style="fill:#CB481A;" d="M232.217,47.939c-0.735-1.873-1.136-3.881-1.177-5.886c-0.002-0.07,0.054-0.129,0.125-0.13         c0.066-0.001,0.122,0.049,0.129,0.114c0.212,1.969,0.656,3.898,1.321,5.752C232.706,48.046,232.318,48.194,232.217,47.939         L232.217,47.939z" />
						</g>
					</g>
					<g>
						<g>
							<path style="fill:#CB481A;" d="M234.538,47.624c0.112-3.142,0.099-6.284-0.037-9.427c-0.009-0.158,0.241-0.179,0.254-0.018         c0.3,3.142,0.369,6.31,0.208,9.463C234.946,47.913,234.53,47.9,234.538,47.624L234.538,47.624z" />
						</g>
					</g>
					<g>
						<g>
							<path style="fill:#CB481A;" d="M236.659,47.445c0.336-1.9,0.625-3.806,0.865-5.726c0.017-0.156,0.263-0.138,0.254,0.02         c-0.07,1.943-0.306,3.881-0.702,5.786C237.02,47.792,236.612,47.716,236.659,47.445L236.659,47.445z" />
						</g>
					</g>
					<g>
						<g>
							<path style="fill:#CB481A;" d="M245.767,49.522c0.189-2.011,0.523-4.008,1-5.969c0.017-0.069,0.086-0.111,0.154-0.094         c0.065,0.016,0.106,0.079,0.096,0.144c-0.307,1.987-0.582,3.974-0.827,5.966C246.156,49.838,245.742,49.796,245.767,49.522         L245.767,49.522z" />
						</g>
					</g>
					<g>
						<g>
							<path style="fill:#CB481A;" d="M247.759,50.151c0.611-2.507,1.436-4.965,2.462-7.331c0.061-0.145,0.293-0.056,0.237,0.094         c-0.87,2.415-1.633,4.861-2.288,7.342C248.1,50.517,247.697,50.419,247.759,50.151L247.759,50.151z" />
						</g>
					</g>
					<g>
						<g>
							<path style="fill:#CB481A;" d="M249.824,50.864c0.717-1.913,1.597-3.766,2.624-5.53c0.035-0.061,0.114-0.082,0.174-0.046         c0.058,0.034,0.079,0.106,0.051,0.165c-0.871,1.836-1.688,3.689-2.454,5.566C250.117,51.271,249.728,51.122,249.824,50.864         L249.824,50.864z" />
						</g>
					</g>
					<g>
						<g>
							<path style="fill:#CB481A;" d="M256.009,56.077c0.803-1.907,1.83-3.721,3.049-5.389c0.042-0.057,0.121-0.069,0.178-0.028         c0.054,0.039,0.068,0.113,0.034,0.169c-1.068,1.75-2.025,3.557-2.871,5.417C256.285,56.495,255.903,56.331,256.009,56.077         L256.009,56.077z" />
						</g>
					</g>
					<g>
						<g>
							<path style="fill:#CB481A;" d="M257.478,57.506c1.064-2.02,2.509-3.849,4.229-5.348c0.054-0.046,0.134-0.04,0.18,0.014         c0.043,0.05,0.04,0.125-0.006,0.172c-0.786,0.806-1.538,1.642-2.199,2.548c-0.686,0.888-1.278,1.841-1.83,2.816         C257.718,57.944,257.353,57.75,257.478,57.506L257.478,57.506z" />
						</g>
					</g>
					<g>
						<g>
							<path style="fill:#CB481A;" d="M258.796,59.406c1.119-1.489,2.283-2.942,3.493-4.361c0.046-0.054,0.126-0.06,0.18-0.014         c0.05,0.043,0.059,0.117,0.021,0.171c-1.074,1.524-2.194,3.012-3.358,4.465C258.961,59.879,258.631,59.626,258.796,59.406         L258.796,59.406z" />
						</g>
					</g>
					<g>
						<g>
							<path style="fill:#CB481A;" d="M262.864,66.562c1.106-0.997,2.249-1.951,3.43-2.861c0.056-0.043,0.136-0.033,0.179,0.023         c0.04,0.052,0.034,0.125-0.012,0.17c-1.068,1.04-2.174,2.036-3.318,2.989C262.933,67.057,262.661,66.746,262.864,66.562         L262.864,66.562z" />
						</g>
					</g>
					<g>
						<g>
							<path style="fill:#CB481A;" d="M221.253,50.246c-0.782-1.982-1.498-3.991-1.97-6.074c-0.015-0.069,0.029-0.137,0.098-0.152         c0.065-0.014,0.129,0.026,0.149,0.088c0.54,1.752,1.484,4.235,2.119,5.983C221.743,50.347,221.358,50.5,221.253,50.246         L221.253,50.246z" />
						</g>
					</g>
					<g>
						<g>
							<path style="fill:#CB481A;" d="M223.291,49.556c-0.464-1.535-0.88-3.078-1.137-4.665c-0.01-0.07,0.038-0.135,0.108-0.145         c0.065-0.01,0.125,0.033,0.142,0.094c0.421,1.532,0.891,3.06,1.295,4.598C223.768,49.699,223.374,49.814,223.291,49.556         L223.291,49.556z" />
						</g>
					</g>
					<g>
						<g>
							<path style="fill:#CB481A;" d="M212.494,56.063c-1.094-1.024-1.962-2.28-2.458-3.692c-0.023-0.067,0.013-0.139,0.08-0.162         c0.062-0.021,0.129,0.009,0.156,0.066c0.629,1.288,1.506,2.457,2.509,3.474C212.984,55.932,212.694,56.251,212.494,56.063         L212.494,56.063z" />
						</g>
					</g>
				</g>
				<g>
					<g>
						<path style="fill:#F8B04C;" d="M253.159,87.154c-2.18,0.459-4.875,0.935-7.902,1.301c-2.937,0.357-6.189,0.608-9.593,0.629        c-5.632,0.038-11.68-0.553-17.41-2.333c-2.818-0.871-5.555-2.032-8.127-3.545c-0.178-0.451-0.259-0.939-0.098-1.403        c0.485-1.411,3.035-0.812,4.828,0.65c1.79,1.466,11.285,3.039,22.137,2.499c10.852-0.544,12.263-1.577,12.263-1.577        L253.159,87.154z" />
					</g>
				</g>
				<g>
					<g>
						<path style="fill:#F89B34;" d="M252.946,99.378c-0.123,0.017-0.242,0.034-0.366,0.047c-1.071,0.123-2.117,0.106-3.056-0.021        c-0.306-0.042-0.604-0.098-0.888-0.162c-1.641-0.365-2.835-1.071-3.094-1.84c-0.068-0.204-0.098-0.468-0.098-0.778        c0-0.085,0-0.174,0.004-0.264c0.055-1.726,0.689-4.633-0.042-7.311c-0.162-0.599-0.302-1.194-0.425-1.777        c-0.274-1.298-0.451-2.502-0.562-3.395c-0.129-1.048,0.244-2.099,1.019-2.816c5.012-4.631,11.993-1.504,12.264,0.375        c0.293,2.032,0.876,7.608,1.177,11.889C259.173,97.457,256.253,98.919,252.946,99.378z" />
					</g>
				</g>
				<g>
					<g>
						<path style="fill:#E96F1A;" d="M248.636,99.242c-1.641-0.365-2.835-1.071-3.094-1.84c-0.085-0.259-0.111-0.616-0.094-1.041        c0.285-0.484,0.774-1.037,1.475-0.91C248.097,95.655,248.5,97.903,248.636,99.242z" />
					</g>
				</g>
				<g>
					<g>
						<path style="fill:#E96F1A;" d="M252.946,99.378c-0.123,0.017-0.242,0.034-0.366,0.047c-1.071,0.123-2.117,0.106-3.056-0.021        c-0.055-1.152,0.017-3.209,1.207-3.213C252.151,96.186,252.793,97.814,252.946,99.378z" />
					</g>
				</g>
				<g>
					<g>
						<path style="fill:#E87524;" d="M247.099,89.173c1.402-0.711,3.095-0.24,4.363,0.538c0.06,0.037,0.079,0.116,0.042,0.176        c-0.034,0.055-0.103,0.075-0.16,0.05c-1.292-0.526-2.768-0.969-4.142-0.534C247.063,89.455,246.967,89.243,247.099,89.173        L247.099,89.173z" />
					</g>
				</g>
				<g>
					<g>
						<path style="fill:#E87524;" d="M247.194,90.813c1.223,0.187,2.453,0.304,3.691,0.299c0.072,0,0.13,0.059,0.128,0.131        c-0.001,0.061-0.045,0.11-0.102,0.122c-1.259,0.238-2.578,0.116-3.787-0.307C246.982,91.008,247.046,90.781,247.194,90.813        L247.194,90.813z" />
					</g>
				</g>
				<g>
					<g>
						<path style="fill:#F89B34;" d="M227.577,83.358c0.706,0.605,1.094,1.502,1.073,2.432c-0.065,2.769-0.256,9.294-0.658,11.021        c-0.434,1.862-3.167,2.996-5.963,3.239c-0.531,0.051-1.071,0.064-1.594,0.043c-0.574-0.021-1.143-0.064-1.683-0.136h-0.004        c-0.331-0.047-0.655-0.102-0.956-0.174c-1.734-0.399-2.899-1.241-2.389-2.911c0.013-0.038,0.021-0.077,0.034-0.115        c0.042-0.14,0.081-0.285,0.115-0.429c0.111-0.48,0.178-0.969,0.161-1.462c-0.051-1.913-0.123-5.781,0.004-8.99        c0.009-0.259,0.021-0.51,0.034-0.757C215.967,80.992,223.51,79.87,227.577,83.358z" />
					</g>
				</g>
				<g>
					<g>
						<path style="fill:#E96F1A;" d="M222.028,100.05c-0.531,0.051-1.071,0.064-1.594,0.043c-0.574-0.021-1.143-0.064-1.683-0.136        c0.17-1.194,0.608-3.069,1.683-3.009C221.756,97.023,222.016,98.796,222.028,100.05z" />
					</g>
				</g>
				<g>
					<g>
						<path style="fill:#E96F1A;" d="M217.791,99.782c-1.734-0.399-2.899-1.241-2.389-2.911c0.055-0.179,0.106-0.361,0.149-0.544        c0.251-0.361,0.57-0.621,0.952-0.574C217.523,95.867,218.003,97.283,217.791,99.782z" />
					</g>
				</g>
				<g>
					<g>
						<path style="fill:#E87524;" d="M257.829,81.419c0.287,1.451,0.461,2.924,0.521,4.402c0.007,0.15-0.225,0.178-0.253,0.03        c-0.288-1.455-0.461-2.919-0.52-4.402C257.569,81.298,257.801,81.271,257.829,81.419L257.829,81.419z" />
					</g>
				</g>
				<g>
					<g>
						<path style="fill:#E87524;" d="M245.122,88.951c-0.395-1.664-0.725-3.343-0.829-5.057c-0.003-0.071,0.052-0.13,0.122-0.133        c0.064-0.003,0.119,0.042,0.131,0.102c0.171,0.834,0.307,1.67,0.47,2.501c0.189,0.806,0.249,1.705,0.352,2.521        C245.399,89.034,245.171,89.095,245.122,88.951L245.122,88.951z" />
					</g>
				</g>
				<g>
					<g>
						<path style="fill:#E7611A;" d="M208.005,90.116c0.88,0.551,1.838,0.992,2.883,1.063c0.074,0.003,0.131,0.068,0.123,0.142        c-0.006,0.059-0.052,0.104-0.108,0.112c-0.56,0.096-1.142-0.007-1.668-0.209c-0.52-0.218-1.005-0.505-1.398-0.916        c-0.049-0.051-0.047-0.132,0.004-0.181C207.887,90.084,207.955,90.082,208.005,90.116L208.005,90.116z" />
					</g>
				</g>
				<g>
					<g>
						<path style="fill:#E7611A;" d="M208.017,87.695c1.397,0.239,2.782,0.92,3.658,2.057c0.043,0.056,0.032,0.136-0.025,0.179        c-0.051,0.039-0.122,0.033-0.167-0.01c-1.002-0.927-2.244-1.523-3.522-1.977C207.813,87.903,207.865,87.668,208.017,87.695        L208.017,87.695z" />
					</g>
				</g>
				<g>
					<g>
						<path style="fill:none;stroke:#E87524;stroke-linecap:round;stroke-linejoin:round;stroke-miterlimit:10;" d="M227.577,83.358        " />
					</g>
				</g>
				<g>
					<g>
						<path style="fill:#E87524;" d="M215.589,85.87c-0.115-1.041,0.033-2.361,1.074-2.885c0.064-0.03,0.141-0.002,0.171,0.063        c0.025,0.055,0.009,0.118-0.036,0.154c-0.549,0.465-0.778,1.209-0.855,1.908c-0.025,0.257-0.053,0.515-0.1,0.772        c-0.013,0.07-0.08,0.116-0.149,0.103C215.636,85.974,215.594,85.926,215.589,85.87L215.589,85.87z" />
					</g>
				</g>
				<g>
					<g>
						<path style="fill:#E87524;" d="M227.66,83.261c1.746,1.283,1.107,3.666,1.032,5.516c-0.013,0.154-0.252,0.146-0.255-0.009        c-0.189-1.786,0.526-3.923-0.943-5.314C227.382,83.349,227.539,83.166,227.66,83.261L227.66,83.261z" />
					</g>
				</g>
				<g>
					<g>
						<path style="fill:#E87524;" d="M218.528,92.314c1.208,0.25,2.433,0.406,3.669,0.37c0.072-0.002,0.133,0.056,0.132,0.128        c0,0.06-0.042,0.111-0.098,0.124c-0.629,0.15-1.284,0.153-1.922,0.091c-0.638-0.081-1.267-0.21-1.863-0.472        c-0.065-0.029-0.094-0.104-0.065-0.169C218.405,92.329,218.468,92.3,218.528,92.314L218.528,92.314z" />
					</g>
				</g>
				<g>
					<g>
						<path style="fill:#E87524;" d="M217.941,90.26c1.421-0.419,3.034-0.093,4.205,0.803c0.056,0.042,0.068,0.122,0.025,0.179        c-0.039,0.052-0.109,0.065-0.164,0.035c-1.225-0.65-2.635-0.935-4.012-0.769C217.847,90.529,217.798,90.302,217.941,90.26        L217.941,90.26z" />
					</g>
				</g>
			</g>
		</g>
		
</svg>
