<?xml version="1.0" encoding="utf-8"?>
<svg version="1.1" xmlns="http://www.w3.org/2000/svg" xmlns:xlink="http://www.w3.org/1999/xlink"
     viewBox="96 185 94 93" width="200" height="200" xml:space="preserve">
<g xmlns="http://www.w3.org/2000/svg">
			<g>
				<g>
					<path style="fill:#F89B34;" d="M183.2,256.881c0,0-2.112,2.491-7.715,3.018c-4.523,0.425-11.323-0.434-21.116-4.918       c0,0-5.326,0.786-11.727-0.51c-3.753-0.761-7.876-2.24-11.51-5.011c-1.845-1.411-3.562-3.154-5.041-5.305       c-0.574-0.833-1.109-1.726-1.602-2.686c-0.663-1.424-1.063-2.992-1.279-4.59c-0.842-6.138,1.033-12.696,1.165-13.155       c0-0.008,0.004-0.013,0.004-0.021c-0.302,0.119-15.072,6.061-19.531-0.493c-0.965-1.471-0.948-3.774,0.221-6.669       c0-0.004,0-0.004,0-0.004c1.59-3.949,5.317-9.003,11.608-14.541c10.907-9.606,27.02-11.451,35.109-5.156       c2.657,2.062,3.009,5.003,1.543,6.52c-1.462,1.522-3.715,0.761-6.376-0.65c-2.656-1.411-8.055-1.139-11.23,5.696       c0,0,2.095,3.277,0.867,10.979c-0.506,3.077-0.145,6.367,7.306,6.55c7.451,0.179,14.345,4.089,20.691,14.94       c3.583,6.401,8.05,13.147,14.851,15.353C182.405,257.242,183.2,256.881,183.2,256.881z" />
				</g>
			</g>
			<g>
				<g>
					<path style="fill:#EA7727;" d="M126.09,244.155c-3.834-0.298-4.718,2.185-4.803,3.201c-0.089,1.05-0.361,1.811-1.177,1.938       c-0.812,0.123-1.373-0.727-1.373-0.727c-0.272,0.31-1.084,0.672-1.59-0.467c-0.51-1.139-0.837-3.549,0.523-5.972       c1.39-2.469,4.629-4.663,5.538-5.249c0.217,1.598,0.616,3.167,1.279,4.59C124.981,242.43,125.516,243.322,126.09,244.155z" />
				</g>
			</g>
			<g>
				<g>
					<path style="fill:#E7611A;" d="M118.616,248.608c-0.328-0.711-0.393-1.536-0.168-2.284c0.023-0.068,0.096-0.104,0.164-0.081       c0.053,0.018,0.087,0.067,0.088,0.12c0.01,0.728,0.07,1.443,0.158,2.166C118.885,248.671,118.676,248.738,118.616,248.608       L118.616,248.608z" />
				</g>
			</g>
			<g>
				<g>
					<path style="fill:#EA7727;" d="M141.392,262.81c-0.922,2.852-2.307,3.442-4.072,3.8c-1.649,0.335-8.488,0.786-9.007-0.948       c-0.514-1.738,2.414-2.686,4.259-4.353c1.845-1.662,1.305-4.012,0-6.512c-1.326-2.631-1.475-4.459-1.441-5.339       c3.634,2.771,7.757,4.251,11.51,5.011C142.756,257.527,142.229,260.226,141.392,262.81z" />
				</g>
			</g>
			<g>
				<g>
					<path style="fill:#E7611A;" d="M128.537,265.961c0.398-1.037,1.345-1.846,2.428-2.076c0.069-0.015,0.137,0.029,0.152,0.098       c0.013,0.061-0.02,0.12-0.074,0.145c-0.921,0.425-1.709,1.1-2.275,1.939C128.697,266.201,128.482,266.103,128.537,265.961       L128.537,265.961z" />
				</g>
			</g>
			<g>
				<g>
					<path style="fill:#E7611A;" d="M130.473,266.647c0.365-0.974,1.208-1.925,2.301-2.007c0.07-0.004,0.131,0.049,0.136,0.12       c0.004,0.062-0.037,0.115-0.094,0.132c-0.931,0.301-1.573,1.086-2.112,1.864C130.63,266.886,130.42,266.787,130.473,266.647       L130.473,266.647z" />
				</g>
			</g>
			<g>
				<g>
					<path style="fill:#F8B04C;" d="M175.485,259.899c-4.523,0.425-11.323-0.434-21.116-4.918c0,0-5.326,0.786-11.727-0.51       c-3.753-0.761-7.876-2.24-11.51-5.011c-1.845-1.411-3.562-3.154-5.041-5.305c-0.574-0.833-1.109-1.726-1.602-2.686       c-0.663-1.424-1.063-2.992-1.279-4.59c-0.842-6.138,1.033-12.696,1.165-13.155l3.549-1.832c0,0-3.15,11.719,2.385,18.341       c5.538,6.618,13.24,9.874,26.48,10.741C161.203,255.096,168.574,258.943,175.485,259.899z" />
				</g>
			</g>
			<g>
				<g>
					<path style="fill:#F89B34;" d="M147.224,237.915c0,0-10.038,7-5.318,16.007c1.031,1.736,4.106,4.341,4.287,6.656       c0.181,2.315-0.823,3.654-2.424,4.847c-1.601,1.194-4.666,4.504,1.357,4.829c6.023,0.326,8.112-1.004,9.496-5.725       c1.384-4.721,0.416-7.324-0.253-9.549c0,0,3.102-3.283,3.129-6.81C157.525,244.644,147.224,237.915,147.224,237.915z" />
				</g>
			</g>
			<g>
				<g>
					<path style="fill:#E87524;" d="M154.276,254.894c1.539-1.944,2.898-4.208,3.095-6.73c0.009-0.156,0.255-0.15,0.255,0.008       c0.036,2.618-1.399,5.055-3.164,6.897C154.35,255.183,154.166,255.013,154.276,254.894L154.276,254.894z" />
				</g>
			</g>
			<g>
				<g>
					<path style="fill:#E87524;" d="M147.297,238.02c-4.836,3.745-8.388,9.877-5.277,15.843c0.078,0.141-0.152,0.267-0.226,0.118       c-2.506-4.367-1.241-9.376,1.941-13.017c1.008-1.186,2.143-2.253,3.416-3.154C147.284,237.717,147.437,237.924,147.297,238.02       L147.297,238.02z" />
				</g>
			</g>
			<g>
				<g>
					<path style="fill:#E87524;" d="M142.311,269.589c0.284-1.039,0.964-2.007,1.932-2.507c0.128-0.066,0.251,0.117,0.143,0.21       c-0.777,0.655-1.354,1.491-1.835,2.381C142.49,269.811,142.271,269.733,142.311,269.589L142.311,269.589z" />
				</g>
			</g>
			<g>
				<g>
					<path style="fill:#E87524;" d="M147.272,268.465c-0.727,0.46-1.435,0.969-1.869,1.726c-0.072,0.123-0.272,0.037-0.233-0.099       c0.246-0.932,1.114-1.596,2.007-1.864C147.319,268.187,147.402,268.398,147.272,268.465L147.272,268.465z" />
				</g>
			</g>
			<g>
				<g>
					<path style="fill:#F89B34;" d="M130.485,237.716c0,0-0.072,2.098-1.429,3.238c-1.357,1.14-4.648,2.93-4.866,6.294       c-0.163,2.315,0.977,3.979,2.406,2.785c0,0,0.561,0.977,1.429,0.904c0.868-0.072,1.393-1.899,1.664-2.767       c0.271-0.868,2.026-1.863,3.165-2.261c1.139-0.398,2.894-1.176,4.088-3.708C138.136,239.67,133.107,235.618,130.485,237.716z" />
				</g>
			</g>
			<g>
				<g>
					<path style="fill:#E87524;" d="M126.862,247.65c-0.107,0.788-0.18,1.569-0.141,2.364c0.005,0.141-0.205,0.177-0.25,0.046       c-0.278-0.807-0.199-1.714,0.148-2.49C126.68,247.438,126.891,247.509,126.862,247.65L126.862,247.65z" />
				</g>
			</g>
			<g>
				<g>
					<path style="fill:#EF7329;" d="M153.327,203.359c-1.462,1.522-3.715,0.761-6.376-0.65c-2.656-1.411-8.055-1.139-11.23,5.696       c0,0-1.896-4.374-8.586-4.663c-8.237-0.357-16.279,10.235-17.801,12.335c-1.517,2.095-2.674,2.35-3.617,1.734       c-0.361-0.238-0.553-0.74-0.65-1.271c0-0.004,0-0.004,0-0.004c1.59-3.949,5.317-9.003,11.608-14.541       c10.907-9.606,27.02-11.451,35.109-5.156C154.441,198.9,154.794,201.842,153.327,203.359z" />
				</g>
			</g>
			<g>
				<g>
					<path style="fill:#CB481A;" d="M129.595,202.169c4.956-3.191,11.57-5.317,17.216-2.724c0.147,0.066,0.048,0.303-0.105,0.232       c-5.623-2.32-11.974-0.224-16.969,2.703C129.606,202.473,129.453,202.26,129.595,202.169L129.595,202.169z" />
				</g>
			</g>
			<g>
				<g>
					<path style="fill:#CB481A;" d="M118.474,219.526c-1.536,4.875-8.619,6.543-12.934,4.713c-0.215-0.119-0.046-0.45,0.178-0.339       c4.188,1.335,10.58-0.069,12.388-4.476C118.169,219.183,118.546,219.28,118.474,219.526L118.474,219.526z" />
				</g>
			</g>
			<g>
				<g>
					<ellipse cx="123.444" cy="213.055" rx="1.682" ry="2.586" />
				</g>
			</g>
			<g>
				<g>
					<path style="fill:#FE7F5E;" d="M130.299,216.419c0,1.149-1.02,2.08-2.279,2.08c-1.259,0-2.279-0.931-2.279-2.08       c0-1.149,1.02-2.08,2.279-2.08C129.279,214.339,130.299,215.27,130.299,216.419z" />
				</g>
			</g>
			<g>
				<g>
					<path style="fill:#CB481A;" d="M110.609,217.891c0.253,0.234-0.038,0.961-0.651,1.622c-0.613,0.661-1.314,1.008-1.567,0.773       c-0.253-0.234,0.038-0.96,0.651-1.622C109.654,218.003,110.356,217.657,110.609,217.891z" />
				</g>
			</g>
			<g>
				<g>
					<path style="fill:#E87524;" d="M129.567,248.133c0.712-1.563,2.543-2.104,3.989-2.732c1.455-0.637,2.546-1.854,3.27-3.253       c0.069-0.142,0.297-0.039,0.231,0.109c-0.629,1.522-1.801,2.852-3.323,3.53c-1.387,0.595-3.121,1.055-3.924,2.422       C129.765,248.368,129.512,248.292,129.567,248.133L129.567,248.133z" />
				</g>
			</g>
			<g>
				<g>
					<path style="fill:#E87524;" d="M130.612,237.721c-0.037,1.096-0.353,2.232-1.098,3.069c-1.294,1.234-2.916,2.072-4.026,3.471       c-0.099,0.122-0.297-0.027-0.202-0.156c0.995-1.504,2.627-2.413,3.925-3.589c0.686-0.759,1.02-1.795,1.146-2.803       C130.362,237.55,130.619,237.556,130.612,237.721L130.612,237.721z" />
				</g>
			</g>
			<g>
				<g>
					<path style="fill:#E87524;" d="M124.334,223.58c1.342-0.694,2.661-1.434,4.014-2.115c0.064-0.031,0.14-0.005,0.171,0.059       C128.821,221.805,123.591,224.583,124.334,223.58L124.334,223.58z" />
				</g>
			</g>
		</g>
		
</svg>
