<?xml version="1.0" encoding="utf-8"?>
<svg version="1.1" xmlns="http://www.w3.org/2000/svg" xmlns:xlink="http://www.w3.org/1999/xlink"
     viewBox="93 28 89 77" width="200" height="200" xml:space="preserve">
<g xmlns="http://www.w3.org/2000/svg">
			<g>
				<g>
					<path style="fill:#F89B34;" d="M174.935,46.239c-13.72,6.703-18.983,18.281-18.983,22.808c-3.46,1.394-5.976,3.481-6.996,6.108       c1.798,4.046,8.067,8.31,13.971,7.621c0.234-0.03,0.378,0.255,0.217,0.429c-4.599,4.931-14.027,2.776-14.027,2.776       s-0.416-0.718-5.147,0.497c-1.063,0.272-2.351,0.646-3.898,1.148c-0.489,0.013-0.965,0.004-1.424-0.021       c-3.643-0.17-6.499-1.339-8.735-3.09c-1.05-0.82-1.964-1.772-2.759-2.81c-2.835-3.715-4.131-8.539-4.663-12.513       c-0.247-1.823-0.327-3.473-0.327-4.752c-5.194,0.808-10.214-0.038-12.654-0.837c-0.523-0.17-1.071-0.259-1.619-0.225       c-1.977,0.115-4.144-0.48-5.343-0.88c-0.553-0.183-0.842-0.786-0.633-1.33c0.684-1.785,2.81-5.687,9.066-9.27       c0,0,2.593-7.511,11.961-10.737c0,0,0.2-0.055,0.57-0.162c3.634-1.003,23.552-6.363,25.176-3.366       c1.785,3.303-9.177,5.874-13.678,11.421c-0.123,0.153-0.259,0.357-0.391,0.587c-0.221,0.37-0.395,0.761-0.519,1.169       c-0.221,0.701-0.293,1.45-0.217,2.189c0.225,2.095,0.208,6.027-2.423,8.926c0,0,0.332,2.274,2.759,3.949       c5.835-4.203,8.051-10.648,9.678-16.062c0.058-0.194,0.177-0.363,0.343-0.479c6.028-4.187,16.885-4.872,21.44-4.818       C170.307,44.564,175.11,44.577,174.935,46.239z" />
				</g>
			</g>
			<g>
				<g>
					<path style="fill:#F3802F;" d="M127.157,81.706c-11.077-1.475-17.61,2.015-20.045,3.711c-0.735,0.514-1.097,0.863-1.097,0.863       c1.135-6.274,4.982-12.241,7.995-14.265c2.223-1.492,6.427-2.431,8.484-2.822c0.11,0.816,0.251,1.67,0.438,2.546       C123.625,75.105,124.904,78.756,127.157,81.706z" />
				</g>
			</g>
			<g>
				<g>
					<path style="fill:#EF7329;" d="M135.011,49.053c-0.123,0.153-0.259,0.357-0.391,0.587c-0.221,0.37-0.395,0.761-0.519,1.169       c-1.36-5.202-5.975-10.493-10.588-9.81c3.634-1.003,23.552-6.363,25.176-3.366C150.474,40.934,139.512,43.506,135.011,49.053z" />
				</g>
			</g>
			<g>
				<g>
					<path d="M122.744,55.257c0,1.314-0.777,2.38-1.736,2.38s-1.736-1.065-1.736-2.38c0-1.314,0.777-2.379,1.736-2.379       S122.744,53.943,122.744,55.257z" />
				</g>
			</g>
			<g>
				<g>
					<path style="fill:#FE7F5E;" d="M126.526,58.053c0.118,0.871-0.565,1.682-1.525,1.812c-0.96,0.13-1.834-0.471-1.952-1.342       c-0.118-0.871,0.565-1.683,1.525-1.812C125.535,56.581,126.408,57.182,126.526,58.053z" />
				</g>
			</g>
			<g>
				<g>
					<path style="fill:#CB481A;" d="M111.153,57.858c0.099,0.256-0.142,0.588-0.538,0.741c-0.396,0.153-0.797,0.069-0.896-0.187       c-0.099-0.256,0.142-0.588,0.538-0.741C110.652,57.517,111.054,57.601,111.153,57.858z" />
				</g>
			</g>
			<g>
				<g>
					<path style="fill:#CB481A;" d="M108.485,63.181c2.179-0.543,8.685-1.245,8.952-3.895c0.007-0.227,0.364-0.233,0.378-0.007       c-0.05,2.765-4.525,3.502-6.642,3.944c-0.876,0.15-1.752,0.273-2.641,0.338C108.299,63.577,108.249,63.222,108.485,63.181       L108.485,63.181z" />
				</g>
			</g>
			<g>
				<g>
					<path style="fill:#F8B04C;" d="M143.971,86.478c-1.063,0.272-2.351,0.646-3.898,1.148c-6.138,0.136-10.218-2.393-12.917-5.921       c-2.835-3.715-4.131-8.539-4.663-12.513c-0.247-1.823-0.327-3.473-0.327-4.752c0,0,2.108-0.591,3.273,1.309       c1.165,1.9,6.495,14.707,14.018,15.897C143.116,82.228,144.039,84.4,143.971,86.478z" />
				</g>
			</g>
			<g>
				<g>
					<path style="fill:#F89B34;" d="M139.529,79.378c0,0-2.058,4.957,0.544,8.248c1.047,1.229,4.375,2.93,4.375,2.93       s0.217,6.511,3.003,6.548c1.266,0.036,0.687-3.183,0.687-3.183s1.266,1.772,2.171,1.483c0.904-0.289,1.375-2.858,0.398-5.209       c-0.977-2.351-1.588-4.213-1.588-4.213s1.046-3.094-0.401-5.663C147.27,77.75,141.482,78.292,139.529,79.378z" />
				</g>
			</g>
			<g>
				<g>
					<path style="fill:#E87524;" d="M148.997,85.94c0.415-1.839,0.421-3.837-0.395-5.568c-0.063-0.139,0.149-0.25,0.226-0.116       c1.069,1.7,1.08,3.914,0.411,5.766C149.185,86.171,148.949,86.093,148.997,85.94L148.997,85.94z" />
				</g>
			</g>
			<g>
				<g>
					<path style="fill:#E87524;" d="M139.646,79.426c-0.84,2.623-1.136,5.754,0.527,8.12c0.102,0.126-0.099,0.289-0.2,0.158       c-1.939-2.325-1.672-5.734-0.562-8.376C139.474,79.181,139.708,79.275,139.646,79.426L139.646,79.426z" />
				</g>
			</g>
			<g>
				<g>
					<path style="fill:#E87524;" d="M147.465,92.212c0.287,0.534,0.488,1.106,0.772,1.631c0.033,0.064,0.007,0.142-0.056,0.174       c-0.046,0.023-0.099,0.017-0.137-0.012c-0.513-0.436-0.744-1.08-0.824-1.724C147.205,92.143,147.407,92.089,147.465,92.212       L147.465,92.212z" />
				</g>
			</g>
			<g>
				<g>
					<path style="fill:#EA7727;" d="M139.321,96.552c-1.033,0.378-2.197-1.683-2.197-1.683s0.451,2.351-0.922,2.64       c-1.373,0.289-2.733-3.018-2.516-7.035c0,0-4.021-2.89-3.77-5.959c2.236,1.751,5.092,2.92,8.735,3.09       c0.217,0.544,0.565,1.458,0.727,2.138C139.618,90.771,140.868,95.872,139.321,96.552z" />
				</g>
			</g>
			<g>
				<g>
					<path style="fill:#E7611A;" d="M137.01,94.927c-0.397-0.554-0.65-1.212-0.655-1.9c0.003-0.072,0.063-0.128,0.135-0.125       c0.053,0.002,0.097,0.035,0.116,0.081c0.123,0.302,0.216,0.605,0.333,0.906c0.099,0.306,0.221,0.609,0.299,0.928       C137.275,94.947,137.089,95.036,137.01,94.927L137.01,94.927z" />
				</g>
			</g>
			<g>
				<g>
					<path style="fill:#EF7329;" d="M174.935,46.239c0,0-8.339-0.531-17.563,1.313c-6.138,1.228-9.984,4.051-10.962,6.945       c-3.328,10.528-9.946,14.001-9.946,14.001c-1.628-0.472-2.244-2.627-2.244-2.627c5.835-4.203,8.051-10.648,9.678-16.062       c0.058-0.194,0.177-0.363,0.343-0.479c6.028-4.187,16.885-4.872,21.44-4.818C170.307,44.564,175.11,44.577,174.935,46.239z" />
				</g>
			</g>
			<g>
				<g>
					<path style="fill:#E87524;" d="M147.445,51.304c4.817-0.113,11.194,0.751,14.308,4.82c0.102,0.139-0.105,0.313-0.222,0.18       c-2.655-2.755-6.634-3.522-10.293-3.945c-1.253-0.129-2.529-0.199-3.774-0.205C146.924,52.145,146.899,51.339,147.445,51.304       L147.445,51.304z" />
				</g>
			</g>
			<g>
				<g>
					<path style="fill:#E87524;" d="M147.001,53.647c4.242,4.214,7.17,9.611,8.936,15.285c0.043,0.129-0.16,0.209-0.211,0.076       c-2.314-5.346-5.328-10.477-9.309-14.743C146.022,53.879,146.585,53.269,147.001,53.647L147.001,53.647z" />
				</g>
			</g>
			<g>
				<g>
					<path style="fill:#EF7329;" d="M122.932,71.739c-1.424,0.123-5.151,0.587-8.072,2.219c-3.426,1.913-6.665,8.476-7.749,11.459       c-0.735,0.514-1.097,0.863-1.097,0.863c1.135-6.274,4.982-12.241,7.995-14.265c2.223-1.492,6.427-2.431,8.484-2.822       C122.605,70.009,122.745,70.863,122.932,71.739z" />
				</g>
			</g>
		</g>
		
</svg>
